<svg width="80" height="80" viewBox="0 0 80 80" fill="none" xmlns="http://www.w3.org/2000/svg">
<circle cx="40" cy="40" r="40" fill="#154A3B"/>
<g clip-path="url(#clip0_550_5546)">
<path d="M49.3333 30.6659H46.5333C46.2239 29.1611 45.4051 27.809 44.215 26.8375C43.0249 25.866 41.5363 25.3345 40 25.3325H30.6667C28.8992 25.3346 27.2047 26.0377 25.955 27.2875C24.7052 28.5373 24.0021 30.2317 24 31.9992V43.9992C24.0034 45.1934 24.4074 46.3519 25.1474 47.2891C25.8874 48.2264 26.9205 48.8882 28.0813 49.1685C27.9557 49.8358 27.9772 50.5224 28.1443 51.1805C28.3114 51.8387 28.62 52.4524 29.0488 52.9789C29.4775 53.5054 30.016 53.932 30.6266 54.2289C31.2373 54.5258 31.9053 54.6859 32.5842 54.698C33.2631 54.7101 33.9365 54.5739 34.5573 54.299C35.1781 54.024 35.7314 53.6169 36.1787 53.106C36.6259 52.5951 36.9563 51.9928 37.1467 51.341C37.3372 50.6893 37.3831 50.0038 37.2813 49.3325H42.724C42.6897 49.5531 42.6714 49.7759 42.6693 49.9992C42.6693 51.2369 43.161 52.4239 44.0362 53.299C44.9113 54.1742 46.0983 54.6659 47.336 54.6659C48.5737 54.6659 49.7607 54.1742 50.6358 53.299C51.511 52.4239 52.0027 51.2369 52.0027 49.9992C52.0012 49.7204 51.9739 49.4423 51.9213 49.1685C53.0816 48.8877 54.1142 48.2257 54.8537 47.2884C55.5931 46.3512 55.9968 45.193 56 43.9992V37.3325C55.9979 35.5651 55.2948 33.8706 54.045 32.6208C52.7953 31.371 51.1008 30.668 49.3333 30.6659ZM53.3333 37.3325V38.6659H46.6667V33.3325H49.3333C50.3942 33.3325 51.4116 33.7539 52.1618 34.5041C52.9119 35.2542 53.3333 36.2717 53.3333 37.3325ZM26.6667 43.9992V31.9992C26.6667 30.9383 27.0881 29.9209 27.8382 29.1708C28.5884 28.4206 29.6058 27.9992 30.6667 27.9992H40C41.0609 27.9992 42.0783 28.4206 42.8284 29.1708C43.5786 29.9209 44 30.9383 44 31.9992V46.6659H29.3333C28.6261 46.6659 27.9478 46.3849 27.4477 45.8848C26.9476 45.3847 26.6667 44.7064 26.6667 43.9992ZM34.6667 49.9992C34.6667 50.5296 34.456 51.0383 34.0809 51.4134C33.7058 51.7885 33.1971 51.9992 32.6667 51.9992C32.1362 51.9992 31.6275 51.7885 31.2525 51.4134C30.8774 51.0383 30.6667 50.5296 30.6667 49.9992C30.6675 49.7713 30.7095 49.5455 30.7907 49.3325H34.5427C34.6238 49.5455 34.6658 49.7713 34.6667 49.9992ZM47.3333 51.9992C46.8029 51.9992 46.2942 51.7885 45.9191 51.4134C45.544 51.0383 45.3333 50.5296 45.3333 49.9992C45.3339 49.7713 45.3759 49.5454 45.4573 49.3325H49.2093C49.2907 49.5454 49.3328 49.7713 49.3333 49.9992C49.3333 50.5296 49.1226 51.0383 48.7475 51.4134C48.3725 51.7885 47.8638 51.9992 47.3333 51.9992ZM50.6667 46.6659H46.6667V41.3325H53.3333V43.9992C53.3333 44.7064 53.0524 45.3847 52.5523 45.8848C52.0522 46.3849 51.3739 46.6659 50.6667 46.6659Z" fill="#EAECED"/>
</g>
<defs>
<clipPath id="clip0_550_5546">
<rect width="32" height="32" fill="white" transform="translate(24 24)"/>
</clipPath>
</defs>
</svg>
