<svg width="32" height="30" viewBox="0 0 32 30" fill="none" xmlns="http://www.w3.org/2000/svg">
<path d="M25.3333 5.66585H22.5333C22.2239 4.16107 21.4051 2.80898 20.215 1.83748C19.0249 0.865973 17.5363 0.334459 16 0.33252H6.66667C4.89921 0.334637 3.20474 1.0377 1.95496 2.28748C0.705176 3.53726 0.00211714 5.23173 0 6.99919L0 18.9992C0.00335174 20.1934 0.407384 21.3519 1.14738 22.2891C1.88738 23.2264 2.92052 23.8882 4.08133 24.1685C3.95568 24.8358 3.97716 25.5224 4.14425 26.1805C4.31135 26.8387 4.62005 27.4524 5.0488 27.9789C5.47755 28.5054 6.01602 28.932 6.62665 29.2289C7.23728 29.5258 7.90534 29.6859 8.58423 29.698C9.26311 29.7101 9.93646 29.5739 10.5573 29.299C11.1781 29.024 11.7314 28.6169 12.1787 28.106C12.6259 27.5951 12.9563 26.9928 13.1467 26.341C13.3372 25.6893 13.3831 25.0038 13.2813 24.3325H18.724C18.6897 24.5531 18.6714 24.7759 18.6693 24.9992C18.6693 26.2369 19.161 27.4239 20.0362 28.299C20.9113 29.1742 22.0983 29.6659 23.336 29.6659C24.5737 29.6659 25.7607 29.1742 26.6358 28.299C27.511 27.4239 28.0027 26.2369 28.0027 24.9992C28.0012 24.7204 27.9739 24.4423 27.9213 24.1685C29.0816 23.8877 30.1142 23.2257 30.8537 22.2884C31.5931 21.3512 31.9968 20.193 32 18.9992V12.3325C31.9979 10.5651 31.2948 8.8706 30.045 7.62081C28.7953 6.37103 27.1008 5.66797 25.3333 5.66585V5.66585ZM29.3333 12.3325V13.6659H22.6667V8.33252H25.3333C26.3942 8.33252 27.4116 8.75395 28.1618 9.50409C28.9119 10.2542 29.3333 11.2717 29.3333 12.3325ZM2.66667 18.9992V6.99919C2.66667 5.93832 3.08809 4.92091 3.83824 4.17076C4.58839 3.42061 5.6058 2.99919 6.66667 2.99919H16C17.0609 2.99919 18.0783 3.42061 18.8284 4.17076C19.5786 4.92091 20 5.93832 20 6.99919V21.6659H5.33333C4.62609 21.6659 3.94781 21.3849 3.44772 20.8848C2.94762 20.3847 2.66667 19.7064 2.66667 18.9992ZM10.6667 24.9992C10.6667 25.5296 10.456 26.0383 10.0809 26.4134C9.70581 26.7885 9.1971 26.9992 8.66667 26.9992C8.13623 26.9992 7.62753 26.7885 7.25245 26.4134C6.87738 26.0383 6.66667 25.5296 6.66667 24.9992C6.66749 24.7713 6.70949 24.5455 6.79067 24.3325H10.5427C10.6238 24.5455 10.6658 24.7713 10.6667 24.9992V24.9992ZM23.3333 26.9992C22.8029 26.9992 22.2942 26.7885 21.9191 26.4134C21.544 26.0383 21.3333 25.5296 21.3333 24.9992C21.3339 24.7713 21.3759 24.5454 21.4573 24.3325H25.2093C25.2907 24.5454 25.3328 24.7713 25.3333 24.9992C25.3333 25.5296 25.1226 26.0383 24.7475 26.4134C24.3725 26.7885 23.8638 26.9992 23.3333 26.9992ZM26.6667 21.6659H22.6667V16.3325H29.3333V18.9992C29.3333 19.7064 29.0524 20.3847 28.5523 20.8848C28.0522 21.3849 27.3739 21.6659 26.6667 21.6659Z" fill="#EAECED"/>
</svg>
