<svg width="80" height="80" viewBox="0 0 80 80" fill="none" xmlns="http://www.w3.org/2000/svg">
<circle cx="40" cy="40" r="39.5" fill="#154A3B" stroke="#154A3B"/>
<g clip-path="url(#clip0_550_5551)">
<path d="M31.3335 46.667C32.4381 46.667 33.3335 45.7716 33.3335 44.667C33.3335 43.5624 32.4381 42.667 31.3335 42.667C30.2289 42.667 29.3335 43.5624 29.3335 44.667C29.3335 45.7716 30.2289 46.667 31.3335 46.667Z" fill="white"/>
<path d="M49.3333 28H30.6667C28.8992 28.0021 27.2047 28.7052 25.955 29.955C24.7052 31.2047 24.0021 32.8992 24 34.6667L24 45.3333C24.0021 47.1008 24.7052 48.7953 25.955 50.045C27.2047 51.2948 28.8992 51.9979 30.6667 52H49.3333C51.1008 51.9979 52.7953 51.2948 54.045 50.045C55.2948 48.7953 55.9979 47.1008 56 45.3333V34.6667C55.9979 32.8992 55.2948 31.2047 54.045 29.955C52.7953 28.7052 51.1008 28.0021 49.3333 28ZM30.6667 30.6667H49.3333C50.3942 30.6667 51.4116 31.0881 52.1618 31.8382C52.9119 32.5884 53.3333 33.6058 53.3333 34.6667H26.6667C26.6667 33.6058 27.0881 32.5884 27.8382 31.8382C28.5884 31.0881 29.6058 30.6667 30.6667 30.6667ZM49.3333 49.3333H30.6667C29.6058 49.3333 28.5884 48.9119 27.8382 48.1618C27.0881 47.4116 26.6667 46.3942 26.6667 45.3333V37.3333H53.3333V45.3333C53.3333 46.3942 52.9119 47.4116 52.1618 48.1618C51.4116 48.9119 50.3942 49.3333 49.3333 49.3333Z" fill="white"/>
</g>
<defs>
<clipPath id="clip0_550_5551">
<rect width="32" height="32" fill="white" transform="translate(24 24)"/>
</clipPath>
</defs>
</svg>
