<svg width="33" height="33" viewBox="0 0 33 33" fill="none" xmlns="http://www.w3.org/2000/svg">
<g clip-path="url(#clip0_465_2789)">
<rect width="32" height="32" transform="translate(0.5 0.5)" fill="#154A3B"/>
<path d="M4.94455 6.72217C4.7088 6.72217 4.48271 6.81582 4.31601 6.98252C4.14931 7.14922 4.05566 7.37531 4.05566 7.61106V27.1666C4.05566 27.4024 4.14931 27.6285 4.31601 27.7952C4.48271 27.9619 4.7088 28.0555 4.94455 28.0555C5.1803 28.0555 5.40639 27.9619 5.57309 27.7952C5.73979 27.6285 5.83344 27.4024 5.83344 27.1666V7.61106C5.83344 7.37531 5.73979 7.14922 5.57309 6.98252C5.40639 6.81582 5.1803 6.72217 4.94455 6.72217Z" fill="#FBFBFB"/>
<path d="M8.50022 6.72217C8.26447 6.72217 8.03838 6.81582 7.87168 6.98252C7.70498 7.14922 7.61133 7.37531 7.61133 7.61106V23.6111C7.61133 23.8468 7.70498 24.0729 7.87168 24.2396C8.03838 24.4063 8.26447 24.4999 8.50022 24.4999C8.73596 24.4999 8.96206 24.4063 9.12876 24.2396C9.29546 24.0729 9.38911 23.8468 9.38911 23.6111V7.61106C9.38911 7.37531 9.29546 7.14922 9.12876 6.98252C8.96206 6.81582 8.73596 6.72217 8.50022 6.72217Z" fill="#FBFBFB"/>
<path d="M12.0554 6.72217C11.8196 6.72217 11.5936 6.81582 11.4269 6.98252C11.2602 7.14922 11.1665 7.37531 11.1665 7.61106V23.6111C11.1665 23.8468 11.2602 24.0729 11.4269 24.2396C11.5936 24.4063 11.8196 24.4999 12.0554 24.4999C12.2911 24.4999 12.5172 24.4063 12.6839 24.2396C12.8506 24.0729 12.9443 23.8468 12.9443 23.6111V7.61106C12.9443 7.37531 12.8506 7.14922 12.6839 6.98252C12.5172 6.81582 12.2911 6.72217 12.0554 6.72217Z" fill="#FBFBFB"/>
<path d="M15.6111 6.72217C15.3753 6.72217 15.1492 6.81582 14.9825 6.98252C14.8158 7.14922 14.7222 7.37531 14.7222 7.61106V23.6111C14.7222 23.8468 14.8158 24.0729 14.9825 24.2396C15.1492 24.4063 15.3753 24.4999 15.6111 24.4999C15.8468 24.4999 16.0729 24.4063 16.2396 24.2396C16.4063 24.0729 16.4999 23.8468 16.4999 23.6111V7.61106C16.4999 7.37531 16.4063 7.14922 16.2396 6.98252C16.0729 6.81582 15.8468 6.72217 15.6111 6.72217Z" fill="#FBFBFB"/>
<path d="M19.1667 6.72217C18.931 6.72217 18.7049 6.81582 18.5382 6.98252C18.3715 7.14922 18.2778 7.37531 18.2778 7.61106V23.6111C18.2778 23.8468 18.3715 24.0729 18.5382 24.2396C18.7049 24.4063 18.931 24.4999 19.1667 24.4999C19.4025 24.4999 19.6286 24.4063 19.7953 24.2396C19.962 24.0729 20.0556 23.8468 20.0556 23.6111V7.61106C20.0556 7.37531 19.962 7.14922 19.7953 6.98252C19.6286 6.81582 19.4025 6.72217 19.1667 6.72217Z" fill="#FBFBFB"/>
<path d="M22.7224 6.72217C22.4866 6.72217 22.2605 6.81582 22.0938 6.98252C21.9271 7.14922 21.8335 7.37531 21.8335 7.61106V23.6111C21.8335 23.8468 21.9271 24.0729 22.0938 24.2396C22.2605 24.4063 22.4866 24.4999 22.7224 24.4999C22.9581 24.4999 23.1842 24.4063 23.3509 24.2396C23.5176 24.0729 23.6113 23.8468 23.6113 23.6111V7.61106C23.6113 7.37531 23.5176 7.14922 23.3509 6.98252C23.1842 6.81582 22.9581 6.72217 22.7224 6.72217Z" fill="#FBFBFB"/>
<path d="M26.2776 6.72217C26.0418 6.72217 25.8157 6.81582 25.649 6.98252C25.4823 7.14922 25.3887 7.37531 25.3887 7.61106V23.6111C25.3887 23.8468 25.4823 24.0729 25.649 24.2396C25.8157 24.4063 26.0418 24.4999 26.2776 24.4999C26.5133 24.4999 26.7394 24.4063 26.9061 24.2396C27.0728 24.0729 27.1664 23.8468 27.1664 23.6111V7.61106C27.1664 7.37531 27.0728 7.14922 26.9061 6.98252C26.7394 6.81582 26.5133 6.72217 26.2776 6.72217Z" fill="#FBFBFB"/>
<path d="M29.8332 6.72217C29.5975 6.72217 29.3714 6.81582 29.2047 6.98252C29.038 7.14922 28.9443 7.37531 28.9443 7.61106V27.1666C28.9443 27.4024 29.038 27.6285 29.2047 27.7952C29.3714 27.9619 29.5975 28.0555 29.8332 28.0555C30.069 28.0555 30.2951 27.9619 30.4618 27.7952C30.6285 27.6285 30.7221 27.4024 30.7221 27.1666V7.61106C30.7221 7.37531 30.6285 7.14922 30.4618 6.98252C30.2951 6.81582 30.069 6.72217 29.8332 6.72217Z" fill="#FBFBFB"/>
</g>
<defs>
<clipPath id="clip0_465_2789">
<rect width="32" height="32" fill="white" transform="translate(0.5 0.5)"/>
</clipPath>
</defs>
</svg>
