<svg width="60" height="52" viewBox="0 0 60 52" fill="none" xmlns="http://www.w3.org/2000/svg">
<path d="M38.4815 35.6048L31.0819 29.2085C30.8115 28.9748 30.4919 28.9323 30.3198 28.9323C30.1477 28.9323 29.8281 28.9748 29.5577 29.2085L22.1336 35.626C21.2977 36.3485 19.9948 37.5173 15.6436 37.5173L24.764 45.3798C26.1468 46.5736 28.0213 47.2442 29.9756 47.2442C31.93 47.2442 33.8045 46.5736 35.1873 45.3798L44.3323 37.496C42.0952 37.496 40.2269 37.1135 38.4815 35.6048ZM22.1336 16.3735L29.5577 22.791C29.7544 22.961 30.0494 23.0673 30.3198 23.0673C30.5902 23.0673 30.8852 22.961 31.0819 22.791L38.4323 16.4373C40.1777 14.8648 42.169 14.5035 44.4061 14.5035L35.2611 6.61976C33.8782 5.42593 32.0038 4.75537 30.0494 4.75537C28.095 4.75537 26.2205 5.42593 24.8377 6.61976L15.7173 14.4823C20.044 14.4823 21.3715 15.7148 22.1336 16.3735Z" fill="#154A3B"/>
<path d="M52.3956 21.4314L46.8643 16.6289H43.7668C42.4393 16.6289 41.1118 17.0964 40.2023 17.9252L32.8273 24.3002C32.1389 24.8952 31.2293 25.1927 30.3198 25.1927C29.3831 25.1813 28.4866 24.8622 27.8123 24.3002L20.3881 17.8614C19.4539 17.0539 18.1756 16.5864 16.8235 16.5864H13.2098L7.58018 21.4739C6.19909 22.6692 5.42334 24.2895 5.42334 25.9789C5.42334 27.6683 6.19909 29.2886 7.58018 30.4839L13.2098 35.3714H16.8481C18.1756 35.3714 19.4539 34.9039 20.4127 34.0964L27.8368 27.6789C28.5252 27.0839 29.4348 26.7864 30.3443 26.7864C31.2539 26.7864 32.1635 27.0839 32.8518 27.6789L40.2514 34.0752C41.1856 34.8827 42.4639 35.3502 43.816 35.3502H46.9135L52.4448 30.5477C53.8317 29.3308 54.605 27.689 54.5958 25.9808C54.5866 24.2726 53.7956 22.637 52.3956 21.4314Z" fill="#154A3B"/>
</svg>
