<svg width="81" height="80" viewBox="0 0 81 80" fill="none" xmlns="http://www.w3.org/2000/svg">
<rect x="1.4082" y="0.5" width="79" height="79" stroke="black"/>
<circle cx="40.9082" cy="40" r="38.5" fill="#F7F7F7" stroke="#154A3B" stroke-width="3"/>
<g clip-path="url(#clip0_489_2837)">
<path d="M32.2412 46.667C33.3458 46.667 34.2412 45.7716 34.2412 44.667C34.2412 43.5624 33.3458 42.667 32.2412 42.667C31.1366 42.667 30.2412 43.5624 30.2412 44.667C30.2412 45.7716 31.1366 46.667 32.2412 46.667Z" fill="white"/>
<path d="M50.2415 28H31.5749C29.8074 28.0021 28.1129 28.7052 26.8632 29.955C25.6134 31.2047 24.9103 32.8992 24.9082 34.6667L24.9082 45.3333C24.9103 47.1008 25.6134 48.7953 26.8632 50.045C28.1129 51.2948 29.8074 51.9979 31.5749 52H50.2415C52.009 51.9979 53.7035 51.2948 54.9532 50.045C56.203 48.7953 56.9061 47.1008 56.9082 45.3333V34.6667C56.9061 32.8992 56.203 31.2047 54.9532 29.955C53.7035 28.7052 52.009 28.0021 50.2415 28ZM31.5749 30.6667H50.2415C51.3024 30.6667 52.3198 31.0881 53.07 31.8382C53.8201 32.5884 54.2415 33.6058 54.2415 34.6667H27.5749C27.5749 33.6058 27.9963 32.5884 28.7464 31.8382C29.4966 31.0881 30.514 30.6667 31.5749 30.6667ZM50.2415 49.3333H31.5749C30.514 49.3333 29.4966 48.9119 28.7464 48.1618C27.9963 47.4116 27.5749 46.3942 27.5749 45.3333V37.3333H54.2415V45.3333C54.2415 46.3942 53.8201 47.4116 53.07 48.1618C52.3198 48.9119 51.3024 49.3333 50.2415 49.3333Z" fill="#154A3B"/>
</g>
<rect x="25.4082" y="24.5" width="31" height="31" stroke="#154A3B"/>
<defs>
<clipPath id="clip0_489_2837">
<rect x="24.9082" y="24" width="32" height="32" fill="white"/>
</clipPath>
</defs>
</svg>
