<svg width="45" height="38" viewBox="0 0 45 38" fill="none" xmlns="http://www.w3.org/2000/svg">
<path d="M3.25 27.6719C3.25 28.7452 3.75703 29.7745 4.65955 30.5334C5.56207 31.2924 6.78615 31.7188 8.0625 31.7188H36.9375C38.2139 31.7188 39.4379 31.2924 40.3405 30.5334C41.243 29.7745 41.75 28.7452 41.75 27.6719V16.543H3.25V27.6719ZM8.92188 22.1797C8.92188 21.6047 9.1935 21.0533 9.67699 20.6467C10.1605 20.2401 10.8162 20.0117 11.5 20.0117H15.625C16.3088 20.0117 16.9645 20.2401 17.448 20.6467C17.9315 21.0533 18.2031 21.6047 18.2031 22.1797V23.625C18.2031 24.2 17.9315 24.7514 17.448 25.158C16.9645 25.5646 16.3088 25.793 15.625 25.793H11.5C10.8162 25.793 10.1605 25.5646 9.67699 25.158C9.1935 24.7514 8.92188 24.2 8.92188 23.625V22.1797ZM36.9375 6.28125H8.0625C6.78615 6.28125 5.56207 6.70762 4.65955 7.46655C3.75703 8.22549 3.25 9.25483 3.25 10.3281V12.207H41.75V10.3281C41.75 9.25483 41.243 8.22549 40.3405 7.46655C39.4379 6.70762 38.2139 6.28125 36.9375 6.28125Z" fill="#818181"/>
</svg>
