<svg width="20" height="24" viewBox="0 0 20 24" fill="none" xmlns="http://www.w3.org/2000/svg">
<path d="M15.9375 0H4.5625C3.48545 0.00158786 2.45289 0.528882 1.6913 1.46622C0.929717 2.40356 0.50129 3.6744 0.5 5L0.5 19C0.50129 20.3256 0.929717 21.5964 1.6913 22.5338C2.45289 23.4711 3.48545 23.9984 4.5625 24H15.9375C17.0145 23.9984 18.0471 23.4711 18.8087 22.5338C19.5703 21.5964 19.9987 20.3256 20 19V5C19.9987 3.6744 19.5703 2.40356 18.8087 1.46622C18.0471 0.528882 17.0145 0.00158786 15.9375 0V0ZM18.375 5H12.6875V2H15.9375C16.584 2 17.204 2.31607 17.6611 2.87868C18.1182 3.44129 18.375 4.20435 18.375 5ZM9.4375 2H11.0625V7C11.0625 7.26522 10.9769 7.51957 10.8245 7.70711C10.6722 7.89464 10.4655 8 10.25 8C10.0345 8 9.82785 7.89464 9.67548 7.70711C9.5231 7.51957 9.4375 7.26522 9.4375 7V2ZM4.5625 2H7.8125V5H2.125C2.125 4.20435 2.38181 3.44129 2.83893 2.87868C3.29605 2.31607 3.91603 2 4.5625 2V2ZM15.9375 22H4.5625C3.91603 22 3.29605 21.6839 2.83893 21.1213C2.38181 20.5587 2.125 19.7956 2.125 19V7H7.8125C7.8125 7.79565 8.06931 8.55871 8.52643 9.12132C8.98355 9.68393 9.60353 10 10.25 10C10.8965 10 11.5165 9.68393 11.9736 9.12132C12.4307 8.55871 12.6875 7.79565 12.6875 7H18.375V19C18.375 19.7956 18.1182 20.5587 17.6611 21.1213C17.204 21.6839 16.584 22 15.9375 22ZM16.75 19C16.75 19.2652 16.6644 19.5196 16.512 19.7071C16.3597 19.8946 16.153 20 15.9375 20H13.5C13.2845 20 13.0778 19.8946 12.9255 19.7071C12.7731 19.5196 12.6875 19.2652 12.6875 19C12.6875 18.7348 12.7731 18.4804 12.9255 18.2929C13.0778 18.1054 13.2845 18 13.5 18H15.9375C16.153 18 16.3597 18.1054 16.512 18.2929C16.6644 18.4804 16.75 18.7348 16.75 19Z" fill="#154A3B"/>
</svg>
