<svg width="81" height="80" viewBox="0 0 81 80" fill="none" xmlns="http://www.w3.org/2000/svg">
<circle cx="40.5" cy="40" r="38.5" fill="#154A3B" stroke="#154A3B" stroke-width="3"/>
<g clip-path="url(#clip0_550_5556)">
<path d="M45.9375 28H34.5625C33.4855 28.0016 32.4529 28.5289 31.6913 29.4662C30.9297 30.4036 30.5013 31.6744 30.5 33V47C30.5013 48.3256 30.9297 49.5964 31.6913 50.5338C32.4529 51.4711 33.4855 51.9984 34.5625 52H45.9375C47.0145 51.9984 48.0471 51.4711 48.8087 50.5338C49.5703 49.5964 49.9987 48.3256 50 47V33C49.9987 31.6744 49.5703 30.4036 48.8087 29.4662C48.0471 28.5289 47.0145 28.0016 45.9375 28V28ZM48.375 33H42.6875V30H45.9375C46.584 30 47.204 30.3161 47.6611 30.8787C48.1182 31.4413 48.375 32.2044 48.375 33ZM39.4375 30H41.0625V35C41.0625 35.2652 40.9769 35.5196 40.8245 35.7071C40.6722 35.8946 40.4655 36 40.25 36C40.0345 36 39.8278 35.8946 39.6755 35.7071C39.5231 35.5196 39.4375 35.2652 39.4375 35V30ZM34.5625 30H37.8125V33H32.125C32.125 32.2044 32.3818 31.4413 32.8389 30.8787C33.296 30.3161 33.916 30 34.5625 30V30ZM45.9375 50H34.5625C33.916 50 33.296 49.6839 32.8389 49.1213C32.3818 48.5587 32.125 47.7956 32.125 47V35H37.8125C37.8125 35.7956 38.0693 36.5587 38.5264 37.1213C38.9835 37.6839 39.6035 38 40.25 38C40.8965 38 41.5165 37.6839 41.9736 37.1213C42.4307 36.5587 42.6875 35.7956 42.6875 35H48.375V47C48.375 47.7956 48.1182 48.5587 47.6611 49.1213C47.204 49.6839 46.584 50 45.9375 50ZM46.75 47C46.75 47.2652 46.6644 47.5196 46.512 47.7071C46.3597 47.8946 46.153 48 45.9375 48H43.5C43.2845 48 43.0778 47.8946 42.9255 47.7071C42.7731 47.5196 42.6875 47.2652 42.6875 47C42.6875 46.7348 42.7731 46.4804 42.9255 46.2929C43.0778 46.1054 43.2845 46 43.5 46H45.9375C46.153 46 46.3597 46.1054 46.512 46.2929C46.6644 46.4804 46.75 46.7348 46.75 47Z" fill="white"/>
</g>
<defs>
<clipPath id="clip0_550_5556">
<rect width="19.5" height="24" fill="#154A3B" transform="translate(30.5 28)"/>
</clipPath>
</defs>
</svg>
