<svg width="1092" height="395" viewBox="0 0 1092 395" fill="none" xmlns="http://www.w3.org/2000/svg">
<path d="M239.812 33.5H181.062C180.283 33.5 179.536 33.0588 178.985 32.2735C178.434 31.4882 178.125 30.4231 178.125 29.3125C178.125 28.2019 178.434 27.1368 178.985 26.3515C179.536 25.5662 180.283 25.125 181.062 25.125H231C231.779 25.125 232.526 24.6838 233.077 23.8985C233.628 23.1132 233.938 22.0481 233.938 20.9375C233.938 19.8269 233.628 18.7618 233.077 17.9765C232.526 17.1912 231.779 16.75 231 16.75H181.062C178.725 16.75 176.484 18.0735 174.831 20.4295C173.178 22.7854 172.25 25.9807 172.25 29.3125V96.3125C172.25 99.6443 173.178 102.84 174.831 105.196C176.484 107.551 178.725 108.875 181.062 108.875H239.812C241.371 108.875 242.865 107.993 243.967 106.422C245.069 104.851 245.688 102.721 245.688 100.5V41.875C245.688 39.6538 245.069 37.5236 243.967 35.953C242.865 34.3824 241.371 33.5 239.812 33.5ZM226.594 75.375C225.722 75.375 224.87 75.0066 224.146 74.3164C223.421 73.6262 222.856 72.6452 222.523 71.4975C222.189 70.3497 222.102 69.0868 222.272 67.8683C222.442 66.6499 222.862 65.5307 223.478 64.6522C224.094 63.7738 224.879 63.1756 225.734 62.9332C226.589 62.6908 227.475 62.8152 228.28 63.2906C229.085 63.766 229.773 64.5711 230.257 65.6041C230.742 66.637 231 67.8514 231 69.0938C231 70.7596 230.536 72.3573 229.709 73.5353C228.883 74.7132 227.762 75.375 226.594 75.375Z" fill="#154A3B"/>
<path fill-rule="evenodd" clip-rule="evenodd" d="M465.812 87.2758V45.853L454.062 51.8328V69.0937C454.062 70.7596 453.598 72.3572 452.772 73.5352C451.946 74.7131 450.825 75.3749 449.656 75.3749C448.488 75.3749 447.367 74.7131 446.541 73.5352C445.714 72.3572 445.25 70.7596 445.25 69.0937V56.3218L432.031 63.0553V114.042L460.096 99.0343C461.775 98.1362 463.222 96.5294 464.243 94.4283C465.265 92.3273 465.812 89.832 465.812 87.2758ZM452.57 39.2535L461.97 34.4714C461.638 34.1564 461.295 33.8657 460.942 33.6004L442.307 20.326C441.223 19.5536 440.039 19.1081 438.829 19.0173C437.619 18.9266 436.409 19.1924 435.274 19.7984L429.746 22.7548L451.624 38.349C451.977 38.6003 452.29 38.9018 452.564 39.2535H452.57ZM418.483 28.768L441.267 45.0155L427.913 51.8077L405.558 35.87C405.981 35.5183 406.432 35.214 406.91 34.9572L418.483 28.768ZM423.219 62.5109L401.188 46.8078V89.1602C401.189 91.493 401.645 93.7793 402.507 95.7629C403.368 97.7465 404.6 99.3491 406.064 100.391L423.219 112.619V62.5109ZM392.375 46.724C392.375 43.0725 392.927 39.555 393.938 36.3725C394.114 35.201 394.522 34.1258 395.113 33.2738C397.122 28.7513 400.136 25.1668 403.808 23.1987L432.19 8.0399C434.459 6.8267 436.879 6.29351 439.299 6.47363C441.719 6.65376 444.087 7.54333 446.255 9.08678L464.89 22.3695C467.816 24.4576 470.276 27.6656 471.996 31.6342C473.715 35.6027 474.625 40.1752 474.625 44.8397V87.2758C474.625 92.3907 473.53 97.3838 471.486 101.588C469.442 105.791 466.546 109.006 463.186 110.801L434.822 125.96C432.552 127.174 430.131 127.708 427.71 127.528C425.289 127.348 422.92 126.458 420.751 124.913L402.116 111.63C399.189 109.543 396.727 106.336 395.007 102.367C393.286 98.3986 392.375 93.8255 392.375 89.1602V46.724Z" fill="#154A3B"/>
<path d="M683 103.292C681.442 103.292 679.948 102.409 678.846 100.839C677.744 99.2682 677.125 97.138 677.125 94.9168C677.125 92.6956 677.744 90.5654 678.846 88.9948C679.948 87.4242 681.442 86.5418 683 86.5418C684.558 86.5418 686.053 87.4242 687.155 88.9948C688.256 90.5654 688.875 92.6956 688.875 94.9168C688.875 97.138 688.256 99.2682 687.155 100.839C686.053 102.409 684.558 103.292 683 103.292ZM688.875 53.0418L696.552 67.0002H679.084V53.0418M636 103.292C634.442 103.292 632.948 102.409 631.846 100.839C630.744 99.2682 630.125 97.138 630.125 94.9168C630.125 92.6956 630.744 90.5654 631.846 88.9948C632.948 87.4242 634.442 86.5418 636 86.5418C637.558 86.5418 639.053 87.4242 640.155 88.9948C641.256 90.5654 641.875 92.6956 641.875 94.9168C641.875 97.138 641.256 99.2682 640.155 100.839C639.053 102.409 637.558 103.292 636 103.292ZM690.834 44.6668H679.084V22.3335H624.25C619.903 22.3335 616.417 27.3027 616.417 33.5002V94.9168H624.25C624.25 99.3592 625.488 103.62 627.692 106.761C629.895 109.902 632.884 111.667 636 111.667C639.117 111.667 642.105 109.902 644.309 106.761C646.512 103.62 647.75 99.3592 647.75 94.9168H671.25C671.25 99.3592 672.488 103.62 674.692 106.761C676.895 109.902 679.884 111.667 683 111.667C686.117 111.667 689.105 109.902 691.309 106.761C693.512 103.62 694.75 99.3592 694.75 94.9168H702.584V67.0002L690.834 44.6668Z" fill="#154A3B"/>
<path d="M885 85.9273L870.43 98.6015L874.266 74.7048L861.401 58.6248L878.374 56.559L885 34.0023L891.626 56.559L908.599 58.6248L895.734 74.7048L899.57 98.6015M923.75 51.5898L895.889 48.184L885 11.1665L874.111 48.184L846.25 51.5898L867.369 77.999L861.052 117.25L885 96.424L908.947 117.25L902.592 77.999L923.75 51.5898Z" fill="#154A3B"/>
<path d="M181.171 219.5L179.877 215.252H173.371L172.077 219.5H168L174.299 201.58H178.925L185.249 219.5H181.171ZM178.974 212.078L177.68 207.928C177.599 207.651 177.489 207.297 177.351 206.866C177.22 206.426 177.086 205.983 176.948 205.535C176.818 205.079 176.712 204.685 176.63 204.351C176.549 204.685 176.435 205.1 176.289 205.596C176.15 206.084 176.016 206.548 175.886 206.988C175.756 207.427 175.662 207.741 175.605 207.928L174.323 212.078H178.974ZM199.702 201.653C202.005 201.653 203.685 202.15 204.743 203.143C205.801 204.127 206.33 205.486 206.33 207.22C206.33 208.001 206.212 208.75 205.976 209.466C205.74 210.174 205.354 210.805 204.816 211.358C204.287 211.911 203.579 212.351 202.692 212.676C201.805 212.994 200.711 213.152 199.409 213.152H197.785V219.5H194.001V201.653H199.702ZM199.506 204.754H197.785V210.052H199.03C199.738 210.052 200.353 209.958 200.874 209.771C201.394 209.584 201.797 209.291 202.082 208.892C202.367 208.493 202.509 207.981 202.509 207.354C202.509 206.475 202.265 205.824 201.777 205.401C201.289 204.97 200.532 204.754 199.506 204.754ZM214.997 205.572C216.828 205.572 218.232 205.971 219.208 206.768C220.185 207.566 220.673 208.778 220.673 210.406V219.5H218.073L217.353 217.645H217.255C216.865 218.133 216.466 218.532 216.059 218.841C215.652 219.15 215.184 219.378 214.655 219.524C214.126 219.671 213.483 219.744 212.727 219.744C211.921 219.744 211.197 219.59 210.554 219.28C209.919 218.971 209.418 218.499 209.052 217.864C208.686 217.221 208.503 216.408 208.503 215.423C208.503 213.974 209.012 212.908 210.029 212.225C211.046 211.533 212.572 211.15 214.606 211.077L216.975 211.004V210.406C216.975 209.69 216.787 209.165 216.413 208.831C216.039 208.497 215.518 208.331 214.851 208.331C214.191 208.331 213.544 208.424 212.91 208.611C212.275 208.799 211.64 209.035 211.005 209.319L209.772 206.805C210.497 206.422 211.306 206.121 212.202 205.901C213.105 205.682 214.037 205.572 214.997 205.572ZM216.975 213.177L215.534 213.226C214.33 213.258 213.492 213.474 213.02 213.873C212.556 214.271 212.324 214.796 212.324 215.447C212.324 216.017 212.491 216.424 212.824 216.668C213.158 216.904 213.593 217.022 214.13 217.022C214.928 217.022 215.599 216.786 216.145 216.314C216.698 215.842 216.975 215.171 216.975 214.3V213.177ZM228.51 225.506C226.606 225.506 225.149 225.172 224.14 224.505C223.139 223.846 222.639 222.918 222.639 221.722C222.639 220.9 222.895 220.212 223.408 219.659C223.92 219.105 224.673 218.711 225.666 218.475C225.284 218.312 224.95 218.047 224.665 217.681C224.38 217.307 224.238 216.912 224.238 216.497C224.238 215.976 224.388 215.545 224.689 215.203C224.991 214.853 225.426 214.511 225.996 214.178C225.279 213.868 224.71 213.372 224.287 212.688C223.872 212.005 223.664 211.199 223.664 210.271C223.664 209.279 223.88 208.436 224.311 207.745C224.75 207.045 225.385 206.512 226.215 206.146C227.054 205.779 228.071 205.596 229.267 205.596C229.519 205.596 229.812 205.612 230.146 205.645C230.48 205.678 230.785 205.714 231.062 205.755C231.346 205.796 231.538 205.828 231.635 205.853H236.396V207.745L234.26 208.294C234.455 208.595 234.602 208.917 234.699 209.258C234.797 209.6 234.846 209.962 234.846 210.345C234.846 211.81 234.333 212.953 233.308 213.775C232.29 214.589 230.874 214.996 229.06 214.996C228.628 214.971 228.221 214.939 227.839 214.898C227.652 215.044 227.509 215.199 227.412 215.362C227.314 215.525 227.265 215.695 227.265 215.875C227.265 216.054 227.338 216.204 227.485 216.326C227.639 216.44 227.867 216.53 228.168 216.595C228.478 216.652 228.86 216.68 229.316 216.68H231.635C233.133 216.68 234.272 217.002 235.053 217.645C235.843 218.287 236.237 219.231 236.237 220.477C236.237 222.072 235.57 223.309 234.235 224.188C232.909 225.066 231 225.506 228.51 225.506ZM228.669 223.077C229.556 223.077 230.317 222.991 230.952 222.82C231.595 222.658 232.087 222.422 232.429 222.112C232.771 221.811 232.941 221.449 232.941 221.026C232.941 220.684 232.84 220.411 232.636 220.208C232.441 220.013 232.14 219.874 231.733 219.793C231.334 219.712 230.821 219.671 230.195 219.671H228.266C227.81 219.671 227.399 219.744 227.033 219.891C226.675 220.037 226.39 220.241 226.179 220.501C225.967 220.77 225.861 221.079 225.861 221.429C225.861 221.941 226.105 222.344 226.594 222.637C227.09 222.93 227.782 223.077 228.669 223.077ZM229.267 212.725C229.967 212.725 230.48 212.509 230.805 212.078C231.131 211.647 231.293 211.061 231.293 210.32C231.293 209.498 231.123 208.884 230.781 208.477C230.447 208.062 229.943 207.854 229.267 207.854C228.583 207.854 228.071 208.062 227.729 208.477C227.387 208.884 227.216 209.498 227.216 210.32C227.216 211.061 227.383 211.647 227.717 212.078C228.059 212.509 228.575 212.725 229.267 212.725ZM244.245 205.572C246.076 205.572 247.48 205.971 248.457 206.768C249.433 207.566 249.921 208.778 249.921 210.406V219.5H247.321L246.601 217.645H246.503C246.113 218.133 245.714 218.532 245.307 218.841C244.9 219.15 244.432 219.378 243.903 219.524C243.374 219.671 242.731 219.744 241.975 219.744C241.169 219.744 240.445 219.59 239.802 219.28C239.167 218.971 238.667 218.499 238.3 217.864C237.934 217.221 237.751 216.408 237.751 215.423C237.751 213.974 238.26 212.908 239.277 212.225C240.294 211.533 241.82 211.15 243.854 211.077L246.223 211.004V210.406C246.223 209.69 246.035 209.165 245.661 208.831C245.287 208.497 244.766 208.331 244.099 208.331C243.439 208.331 242.792 208.424 242.158 208.611C241.523 208.799 240.888 209.035 240.253 209.319L239.021 206.805C239.745 206.422 240.555 206.121 241.45 205.901C242.353 205.682 243.285 205.572 244.245 205.572ZM246.223 213.177L244.782 213.226C243.578 213.258 242.74 213.474 242.268 213.873C241.804 214.271 241.572 214.796 241.572 215.447C241.572 216.017 241.739 216.424 242.072 216.668C242.406 216.904 242.841 217.022 243.378 217.022C244.176 217.022 244.847 216.786 245.393 216.314C245.946 215.842 246.223 215.171 246.223 214.3V213.177ZM261.384 205.596C261.571 205.596 261.787 205.608 262.031 205.633C262.283 205.649 262.486 205.674 262.641 205.706L262.36 209.197C262.238 209.157 262.063 209.128 261.835 209.112C261.616 209.087 261.424 209.075 261.262 209.075C260.782 209.075 260.314 209.136 259.858 209.258C259.41 209.38 259.007 209.58 258.649 209.856C258.291 210.125 258.007 210.483 257.795 210.931C257.591 211.37 257.49 211.911 257.49 212.554V219.5H253.767V205.853H256.586L257.136 208.147H257.319C257.587 207.684 257.921 207.26 258.32 206.878C258.727 206.487 259.187 206.178 259.699 205.95C260.22 205.714 260.782 205.596 261.384 205.596Z" fill="black"/>
<path d="M166.091 249.5H162.148V237.864H166.17C167.326 237.864 168.318 238.097 169.148 238.562C169.981 239.025 170.621 239.689 171.068 240.557C171.515 241.424 171.739 242.462 171.739 243.67C171.739 244.883 171.513 245.924 171.062 246.795C170.616 247.667 169.97 248.335 169.125 248.801C168.284 249.267 167.273 249.5 166.091 249.5ZM164.256 247.676H165.989C166.799 247.676 167.475 247.528 168.017 247.233C168.559 246.934 168.966 246.489 169.239 245.898C169.511 245.303 169.648 244.561 169.648 243.67C169.648 242.78 169.511 242.042 169.239 241.455C168.966 240.864 168.563 240.422 168.028 240.131C167.498 239.835 166.839 239.688 166.051 239.688H164.256V247.676ZM177.685 249.5H173.741V237.864H177.764C178.92 237.864 179.912 238.097 180.741 238.562C181.575 239.025 182.215 239.689 182.662 240.557C183.109 241.424 183.332 242.462 183.332 243.67C183.332 244.883 183.107 245.924 182.656 246.795C182.209 247.667 181.563 248.335 180.719 248.801C179.878 249.267 178.866 249.5 177.685 249.5ZM175.849 247.676H177.582C178.393 247.676 179.069 247.528 179.611 247.233C180.152 246.934 180.56 246.489 180.832 245.898C181.105 245.303 181.241 244.561 181.241 243.67C181.241 242.78 181.105 242.042 180.832 241.455C180.56 240.864 180.156 240.422 179.622 240.131C179.092 239.835 178.433 239.688 177.645 239.688H175.849V247.676ZM189.354 237.318L185.604 251.25H183.803L187.553 237.318H189.354ZM190.757 237.864H193.337L196.791 246.295H196.928L200.382 237.864H202.962V249.5H200.939V241.506H200.831L197.615 249.466H196.104L192.888 241.489H192.78V249.5H190.757V237.864ZM205.257 237.864H207.837L211.291 246.295H211.428L214.882 237.864H217.462V249.5H215.439V241.506H215.331L212.115 249.466H210.604L207.388 241.489H207.28V249.5H205.257V237.864ZM224.416 237.318L220.666 251.25H218.865L222.615 237.318H224.416ZM227.314 249.5H225.064L229.161 237.864H231.763L235.865 249.5H233.615L230.507 240.25H230.416L227.314 249.5ZM227.388 244.938H233.524V246.631H227.388V244.938ZM238.892 249.5H236.642L240.739 237.864H243.341L247.443 249.5H245.193L242.085 240.25H241.994L238.892 249.5ZM238.966 244.938H245.102V246.631H238.966V244.938ZM250.47 249.5H248.22L252.317 237.864H254.919L259.021 249.5H256.771L253.663 240.25H253.572L250.47 249.5ZM250.544 244.938H256.68V246.631H250.544V244.938ZM262.048 249.5H259.798L263.895 237.864H266.497L270.599 249.5H268.349L265.241 240.25H265.151L262.048 249.5ZM262.122 244.938H268.259V246.631H262.122V244.938Z" fill="black"/>
<path d="M361.524 219.5H351.246V201.653H361.524V204.754H355.03V208.672H361.073V211.773H355.03V216.375H361.524V219.5ZM380.995 205.596C382.541 205.596 383.709 205.995 384.498 206.792C385.296 207.582 385.694 208.851 385.694 210.601V219.5H381.959V211.529C381.959 210.552 381.792 209.816 381.458 209.319C381.125 208.823 380.608 208.575 379.908 208.575C378.924 208.575 378.224 208.929 377.809 209.637C377.394 210.337 377.186 211.342 377.186 212.652V219.5H373.463V211.529C373.463 210.878 373.39 210.333 373.243 209.893C373.097 209.454 372.873 209.124 372.572 208.904C372.271 208.685 371.884 208.575 371.412 208.575C370.72 208.575 370.175 208.75 369.776 209.1C369.386 209.441 369.105 209.95 368.934 210.625C368.771 211.293 368.69 212.111 368.69 213.079V219.5H364.967V205.853H367.811L368.312 207.598H368.519C368.796 207.126 369.142 206.744 369.557 206.451C369.98 206.158 370.444 205.942 370.948 205.804C371.453 205.665 371.965 205.596 372.486 205.596C373.487 205.596 374.334 205.759 375.025 206.084C375.725 206.41 376.262 206.915 376.637 207.598H376.966C377.373 206.898 377.947 206.39 378.688 206.072C379.436 205.755 380.205 205.596 380.995 205.596ZM397.12 205.596C398.658 205.596 399.899 206.194 400.843 207.391C401.795 208.587 402.271 210.341 402.271 212.652C402.271 214.198 402.048 215.5 401.6 216.558C401.153 217.608 400.534 218.401 399.745 218.938C398.955 219.476 398.048 219.744 397.022 219.744C396.363 219.744 395.798 219.663 395.326 219.5C394.854 219.329 394.451 219.113 394.117 218.853C393.784 218.584 393.495 218.3 393.25 217.999H393.055C393.12 218.324 393.169 218.658 393.202 219C393.234 219.341 393.25 219.675 393.25 220V225.506H389.527V205.853H392.555L393.08 207.623H393.25C393.495 207.256 393.792 206.919 394.142 206.609C394.492 206.3 394.911 206.056 395.399 205.877C395.895 205.69 396.469 205.596 397.12 205.596ZM395.924 208.575C395.273 208.575 394.756 208.709 394.374 208.978C393.991 209.246 393.71 209.649 393.531 210.186C393.36 210.723 393.267 211.403 393.25 212.225V212.627C393.25 213.506 393.332 214.251 393.495 214.861C393.666 215.472 393.946 215.936 394.337 216.253C394.736 216.57 395.281 216.729 395.973 216.729C396.542 216.729 397.01 216.57 397.376 216.253C397.743 215.936 398.015 215.472 398.194 214.861C398.382 214.243 398.475 213.49 398.475 212.603C398.475 211.268 398.268 210.263 397.853 209.588C397.438 208.912 396.795 208.575 395.924 208.575ZM410.938 205.572C412.77 205.572 414.173 205.971 415.15 206.768C416.126 207.566 416.615 208.778 416.615 210.406V219.5H414.015L413.294 217.645H413.197C412.806 218.133 412.407 218.532 412 218.841C411.594 219.15 411.126 219.378 410.597 219.524C410.068 219.671 409.425 219.744 408.668 219.744C407.862 219.744 407.138 219.59 406.495 219.28C405.86 218.971 405.36 218.499 404.994 217.864C404.627 217.221 404.444 216.408 404.444 215.423C404.444 213.974 404.953 212.908 405.97 212.225C406.987 211.533 408.513 211.15 410.548 211.077L412.916 211.004V210.406C412.916 209.69 412.729 209.165 412.354 208.831C411.98 208.497 411.459 208.331 410.792 208.331C410.133 208.331 409.486 208.424 408.851 208.611C408.216 208.799 407.582 209.035 406.947 209.319L405.714 206.805C406.438 206.422 407.248 206.121 408.143 205.901C409.046 205.682 409.978 205.572 410.938 205.572ZM412.916 213.177L411.476 213.226C410.271 213.258 409.433 213.474 408.961 213.873C408.497 214.271 408.265 214.796 408.265 215.447C408.265 216.017 408.432 216.424 408.766 216.668C409.099 216.904 409.535 217.022 410.072 217.022C410.869 217.022 411.541 216.786 412.086 216.314C412.639 215.842 412.916 215.171 412.916 214.3V213.177ZM426.002 219.744C424.651 219.744 423.5 219.5 422.547 219.012C421.595 218.515 420.871 217.75 420.375 216.717C419.878 215.683 419.63 214.361 419.63 212.75C419.63 211.081 419.911 209.722 420.472 208.672C421.042 207.614 421.827 206.837 422.828 206.341C423.837 205.844 425.005 205.596 426.332 205.596C427.276 205.596 428.089 205.69 428.773 205.877C429.465 206.056 430.067 206.272 430.58 206.524L429.481 209.405C428.895 209.169 428.35 208.978 427.845 208.831C427.341 208.676 426.836 208.599 426.332 208.599C425.681 208.599 425.139 208.754 424.708 209.063C424.277 209.364 423.955 209.82 423.744 210.43C423.532 211.041 423.426 211.806 423.426 212.725C423.426 213.628 423.54 214.377 423.768 214.971C423.996 215.565 424.326 216.009 424.757 216.302C425.188 216.587 425.713 216.729 426.332 216.729C427.105 216.729 427.792 216.627 428.395 216.424C428.997 216.212 429.583 215.919 430.152 215.545V218.731C429.583 219.089 428.985 219.345 428.358 219.5C427.739 219.663 426.954 219.744 426.002 219.744ZM445.729 212.652C445.729 213.791 445.574 214.8 445.265 215.679C444.964 216.558 444.52 217.303 443.934 217.913C443.356 218.515 442.656 218.971 441.834 219.28C441.021 219.59 440.101 219.744 439.076 219.744C438.115 219.744 437.232 219.59 436.427 219.28C435.629 218.971 434.933 218.515 434.339 217.913C433.753 217.303 433.298 216.558 432.972 215.679C432.655 214.8 432.496 213.791 432.496 212.652C432.496 211.138 432.765 209.856 433.302 208.807C433.839 207.757 434.604 206.959 435.597 206.414C436.59 205.869 437.774 205.596 439.149 205.596C440.427 205.596 441.558 205.869 442.542 206.414C443.535 206.959 444.312 207.757 444.874 208.807C445.444 209.856 445.729 211.138 445.729 212.652ZM436.292 212.652C436.292 213.547 436.39 214.3 436.585 214.91C436.781 215.521 437.086 215.98 437.501 216.29C437.916 216.599 438.457 216.753 439.125 216.753C439.784 216.753 440.317 216.599 440.724 216.29C441.139 215.98 441.44 215.521 441.627 214.91C441.822 214.3 441.92 213.547 441.92 212.652C441.92 211.749 441.822 211 441.627 210.406C441.44 209.804 441.139 209.352 440.724 209.051C440.309 208.75 439.767 208.599 439.1 208.599C438.115 208.599 437.399 208.937 436.952 209.612C436.512 210.288 436.292 211.301 436.292 212.652ZM454.554 216.778C454.961 216.778 455.356 216.737 455.738 216.656C456.129 216.574 456.515 216.473 456.898 216.351V219.122C456.499 219.301 456.003 219.447 455.409 219.561C454.823 219.683 454.18 219.744 453.48 219.744C452.666 219.744 451.934 219.614 451.283 219.354C450.64 219.085 450.131 218.625 449.757 217.974C449.391 217.315 449.208 216.399 449.208 215.228V208.648H447.425V207.073L449.476 205.828L450.55 202.947H452.931V205.853H456.751V208.648H452.931V215.228C452.931 215.748 453.077 216.139 453.37 216.399C453.671 216.652 454.066 216.778 454.554 216.778ZM465.26 205.572C467.091 205.572 468.495 205.971 469.471 206.768C470.448 207.566 470.936 208.778 470.936 210.406V219.5H468.336L467.616 217.645H467.518C467.127 218.133 466.729 218.532 466.322 218.841C465.915 219.15 465.447 219.378 464.918 219.524C464.389 219.671 463.746 219.744 462.989 219.744C462.184 219.744 461.459 219.59 460.816 219.28C460.182 218.971 459.681 218.499 459.315 217.864C458.949 217.221 458.766 216.408 458.766 215.423C458.766 213.974 459.274 212.908 460.292 212.225C461.309 211.533 462.835 211.15 464.869 211.077L467.237 211.004V210.406C467.237 209.69 467.05 209.165 466.676 208.831C466.301 208.497 465.781 208.331 465.113 208.331C464.454 208.331 463.807 208.424 463.172 208.611C462.538 208.799 461.903 209.035 461.268 209.319L460.035 206.805C460.759 206.422 461.569 206.121 462.464 205.901C463.368 205.682 464.299 205.572 465.26 205.572ZM467.237 213.177L465.797 213.226C464.592 213.258 463.754 213.474 463.282 213.873C462.818 214.271 462.586 214.796 462.586 215.447C462.586 216.017 462.753 216.424 463.087 216.668C463.421 216.904 463.856 217.022 464.393 217.022C465.191 217.022 465.862 216.786 466.407 216.314C466.961 215.842 467.237 215.171 467.237 214.3V213.177ZM490.809 205.596C492.355 205.596 493.523 205.995 494.312 206.792C495.11 207.582 495.509 208.851 495.509 210.601V219.5H491.773V211.529C491.773 210.552 491.607 209.816 491.273 209.319C490.939 208.823 490.423 208.575 489.723 208.575C488.738 208.575 488.038 208.929 487.623 209.637C487.208 210.337 487 211.342 487 212.652V219.5H483.277V211.529C483.277 210.878 483.204 210.333 483.058 209.893C482.911 209.454 482.687 209.124 482.386 208.904C482.085 208.685 481.699 208.575 481.227 208.575C480.535 208.575 479.99 208.75 479.591 209.1C479.2 209.441 478.919 209.95 478.749 210.625C478.586 211.293 478.504 212.111 478.504 213.079V219.5H474.781V205.853H477.625L478.126 207.598H478.333C478.61 207.126 478.956 206.744 479.371 206.451C479.794 206.158 480.258 205.942 480.763 205.804C481.267 205.665 481.78 205.596 482.301 205.596C483.302 205.596 484.148 205.759 484.84 206.084C485.54 206.41 486.077 206.915 486.451 207.598H486.781C487.188 206.898 487.761 206.39 488.502 206.072C489.251 205.755 490.02 205.596 490.809 205.596ZM504.969 205.596C506.231 205.596 507.317 205.84 508.229 206.329C509.14 206.809 509.844 207.509 510.34 208.428C510.837 209.348 511.085 210.471 511.085 211.797V213.604H502.284C502.324 214.654 502.638 215.48 503.224 216.082C503.818 216.676 504.64 216.973 505.689 216.973C506.56 216.973 507.358 216.884 508.082 216.705C508.806 216.526 509.551 216.257 510.316 215.899V218.78C509.64 219.113 508.932 219.358 508.192 219.512C507.459 219.667 506.568 219.744 505.519 219.744C504.151 219.744 502.939 219.492 501.881 218.987C500.831 218.483 500.005 217.714 499.403 216.68C498.809 215.647 498.512 214.345 498.512 212.774C498.512 211.179 498.78 209.852 499.317 208.794C499.863 207.728 500.619 206.931 501.588 206.402C502.556 205.865 503.683 205.596 504.969 205.596ZM504.994 208.245C504.269 208.245 503.667 208.477 503.187 208.941C502.715 209.405 502.442 210.133 502.369 211.126H507.594C507.586 210.573 507.484 210.08 507.289 209.649C507.101 209.218 506.817 208.876 506.434 208.624C506.06 208.371 505.58 208.245 504.994 208.245ZM521.864 205.596C523.32 205.596 524.492 205.995 525.379 206.792C526.266 207.582 526.71 208.851 526.71 210.601V219.5H522.987V211.529C522.987 210.552 522.808 209.816 522.45 209.319C522.1 208.823 521.546 208.575 520.79 208.575C519.65 208.575 518.873 208.961 518.458 209.734C518.043 210.507 517.835 211.622 517.835 213.079V219.5H514.112V205.853H516.957L517.457 207.598H517.665C517.958 207.126 518.32 206.744 518.751 206.451C519.19 206.158 519.675 205.942 520.204 205.804C520.741 205.665 521.294 205.596 521.864 205.596ZM536.292 216.778C536.699 216.778 537.094 216.737 537.477 216.656C537.867 216.574 538.254 216.473 538.636 216.351V219.122C538.237 219.301 537.741 219.447 537.147 219.561C536.561 219.683 535.918 219.744 535.218 219.744C534.404 219.744 533.672 219.614 533.021 219.354C532.378 219.085 531.869 218.625 531.495 217.974C531.129 217.315 530.946 216.399 530.946 215.228V208.648H529.164V207.073L531.214 205.828L532.289 202.947H534.669V205.853H538.49V208.648H534.669V215.228C534.669 215.748 534.815 216.139 535.108 216.399C535.41 216.652 535.804 216.778 536.292 216.778ZM553.81 212.652C553.81 213.791 553.655 214.8 553.346 215.679C553.045 216.558 552.601 217.303 552.015 217.913C551.437 218.515 550.737 218.971 549.916 219.28C549.102 219.59 548.182 219.744 547.157 219.744C546.196 219.744 545.313 219.59 544.508 219.28C543.71 218.971 543.014 218.515 542.42 217.913C541.834 217.303 541.379 216.558 541.053 215.679C540.736 214.8 540.577 213.791 540.577 212.652C540.577 211.138 540.846 209.856 541.383 208.807C541.92 207.757 542.685 206.959 543.678 206.414C544.671 205.869 545.855 205.596 547.23 205.596C548.508 205.596 549.639 205.869 550.624 206.414C551.616 206.959 552.394 207.757 552.955 208.807C553.525 209.856 553.81 211.138 553.81 212.652ZM544.374 212.652C544.374 213.547 544.471 214.3 544.667 214.91C544.862 215.521 545.167 215.98 545.582 216.29C545.997 216.599 546.538 216.753 547.206 216.753C547.865 216.753 548.398 216.599 548.805 216.29C549.22 215.98 549.521 215.521 549.708 214.91C549.903 214.3 550.001 213.547 550.001 212.652C550.001 211.749 549.903 211 549.708 210.406C549.521 209.804 549.22 209.352 548.805 209.051C548.39 208.75 547.848 208.599 547.181 208.599C546.196 208.599 545.48 208.937 545.033 209.612C544.593 210.288 544.374 211.301 544.374 212.652Z" fill="black"/>
<path d="M402.091 249.5H398.148V237.864H402.17C403.326 237.864 404.318 238.097 405.148 238.562C405.981 239.025 406.621 239.689 407.068 240.557C407.515 241.424 407.739 242.462 407.739 243.67C407.739 244.883 407.513 245.924 407.062 246.795C406.616 247.667 405.97 248.335 405.125 248.801C404.284 249.267 403.273 249.5 402.091 249.5ZM400.256 247.676H401.989C402.799 247.676 403.475 247.528 404.017 247.233C404.559 246.934 404.966 246.489 405.239 245.898C405.511 245.303 405.648 244.561 405.648 243.67C405.648 242.78 405.511 242.042 405.239 241.455C404.966 240.864 404.563 240.422 404.028 240.131C403.498 239.835 402.839 239.688 402.051 239.688H400.256V247.676ZM413.685 249.5H409.741V237.864H413.764C414.92 237.864 415.912 238.097 416.741 238.562C417.575 239.025 418.215 239.689 418.662 240.557C419.109 241.424 419.332 242.462 419.332 243.67C419.332 244.883 419.107 245.924 418.656 246.795C418.209 247.667 417.563 248.335 416.719 248.801C415.878 249.267 414.866 249.5 413.685 249.5ZM411.849 247.676H413.582C414.393 247.676 415.069 247.528 415.611 247.233C416.152 246.934 416.56 246.489 416.832 245.898C417.105 245.303 417.241 244.561 417.241 243.67C417.241 242.78 417.105 242.042 416.832 241.455C416.56 240.864 416.156 240.422 415.622 240.131C415.092 239.835 414.433 239.688 413.645 239.688H411.849V247.676ZM425.354 237.318L421.604 251.25H419.803L423.553 237.318H425.354ZM426.757 237.864H429.337L432.791 246.295H432.928L436.382 237.864H438.962V249.5H436.939V241.506H436.831L433.615 249.466H432.104L428.888 241.489H428.78V249.5H426.757V237.864ZM441.257 237.864H443.837L447.291 246.295H447.428L450.882 237.864H453.462V249.5H451.439V241.506H451.331L448.115 249.466H446.604L443.388 241.489H443.28V249.5H441.257V237.864ZM460.416 237.318L456.666 251.25H454.865L458.615 237.318H460.416ZM463.314 249.5H461.064L465.161 237.864H467.763L471.865 249.5H469.615L466.507 240.25H466.416L463.314 249.5ZM463.388 244.938H469.524V246.631H463.388V244.938ZM474.892 249.5H472.642L476.739 237.864H479.341L483.443 249.5H481.193L478.085 240.25H477.994L474.892 249.5ZM474.966 244.938H481.102V246.631H474.966V244.938ZM486.47 249.5H484.22L488.317 237.864H490.919L495.021 249.5H492.771L489.663 240.25H489.572L486.47 249.5ZM486.544 244.938H492.68V246.631H486.544V244.938ZM498.048 249.5H495.798L499.895 237.864H502.497L506.599 249.5H504.349L501.241 240.25H501.151L498.048 249.5ZM498.122 244.938H504.259V246.631H498.122V244.938Z" fill="black"/>
<path d="M651.524 219.5H641.246V201.653H651.524V204.754H645.03V208.672H651.073V211.773H645.03V216.375H651.524V219.5ZM670.995 205.596C672.541 205.596 673.709 205.995 674.498 206.792C675.296 207.582 675.694 208.851 675.694 210.601V219.5H671.959V211.529C671.959 210.552 671.792 209.816 671.458 209.319C671.125 208.823 670.608 208.575 669.908 208.575C668.924 208.575 668.224 208.929 667.809 209.637C667.394 210.337 667.186 211.342 667.186 212.652V219.5H663.463V211.529C663.463 210.878 663.39 210.333 663.243 209.893C663.097 209.454 662.873 209.124 662.572 208.904C662.271 208.685 661.884 208.575 661.412 208.575C660.72 208.575 660.175 208.75 659.776 209.1C659.386 209.441 659.105 209.95 658.934 210.625C658.771 211.293 658.69 212.111 658.69 213.079V219.5H654.967V205.853H657.811L658.312 207.598H658.519C658.796 207.126 659.142 206.744 659.557 206.451C659.98 206.158 660.444 205.942 660.948 205.804C661.453 205.665 661.965 205.596 662.486 205.596C663.487 205.596 664.334 205.759 665.025 206.084C665.725 206.41 666.262 206.915 666.637 207.598H666.966C667.373 206.898 667.947 206.39 668.688 206.072C669.436 205.755 670.205 205.596 670.995 205.596ZM693.639 205.596C693.826 205.596 694.042 205.608 694.286 205.633C694.538 205.649 694.741 205.674 694.896 205.706L694.615 209.197C694.493 209.157 694.318 209.128 694.09 209.112C693.871 209.087 693.679 209.075 693.517 209.075C693.036 209.075 692.569 209.136 692.113 209.258C691.665 209.38 691.262 209.58 690.904 209.856C690.546 210.125 690.261 210.483 690.05 210.931C689.846 211.37 689.745 211.911 689.745 212.554V219.5H686.021V205.853H688.841L689.391 208.147H689.574C689.842 207.684 690.176 207.26 690.575 206.878C690.982 206.487 691.441 206.178 691.954 205.95C692.475 205.714 693.036 205.596 693.639 205.596ZM709.776 212.652C709.776 213.791 709.622 214.8 709.312 215.679C709.011 216.558 708.568 217.303 707.982 217.913C707.404 218.515 706.704 218.971 705.882 219.28C705.069 219.59 704.149 219.744 703.124 219.744C702.163 219.744 701.28 219.59 700.475 219.28C699.677 218.971 698.981 218.515 698.387 217.913C697.801 217.303 697.346 216.558 697.02 215.679C696.703 214.8 696.544 213.791 696.544 212.652C696.544 211.138 696.812 209.856 697.35 208.807C697.887 207.757 698.652 206.959 699.645 206.414C700.637 205.869 701.821 205.596 703.197 205.596C704.474 205.596 705.606 205.869 706.59 206.414C707.583 206.959 708.36 207.757 708.922 208.807C709.492 209.856 709.776 211.138 709.776 212.652ZM700.34 212.652C700.34 213.547 700.438 214.3 700.633 214.91C700.829 215.521 701.134 215.98 701.549 216.29C701.964 216.599 702.505 216.753 703.172 216.753C703.832 216.753 704.365 216.599 704.771 216.29C705.187 215.98 705.488 215.521 705.675 214.91C705.87 214.3 705.968 213.547 705.968 212.652C705.968 211.749 705.87 211 705.675 210.406C705.488 209.804 705.187 209.352 704.771 209.051C704.356 208.75 703.815 208.599 703.148 208.599C702.163 208.599 701.447 208.937 701 209.612C700.56 210.288 700.34 211.301 700.34 212.652ZM718.602 216.778C719.009 216.778 719.404 216.737 719.786 216.656C720.177 216.574 720.563 216.473 720.946 216.351V219.122C720.547 219.301 720.051 219.447 719.457 219.561C718.871 219.683 718.228 219.744 717.528 219.744C716.714 219.744 715.982 219.614 715.331 219.354C714.688 219.085 714.179 218.625 713.805 217.974C713.438 217.315 713.255 216.399 713.255 215.228V208.648H711.473V207.073L713.524 205.828L714.598 202.947H716.979V205.853H720.799V208.648H716.979V215.228C716.979 215.748 717.125 216.139 717.418 216.399C717.719 216.652 718.114 216.778 718.602 216.778ZM729.308 205.572C731.139 205.572 732.542 205.971 733.519 206.768C734.496 207.566 734.984 208.778 734.984 210.406V219.5H732.384L731.664 217.645H731.566C731.175 218.133 730.777 218.532 730.37 218.841C729.963 219.15 729.495 219.378 728.966 219.524C728.437 219.671 727.794 219.744 727.037 219.744C726.231 219.744 725.507 219.59 724.864 219.28C724.229 218.971 723.729 218.499 723.363 217.864C722.997 217.221 722.813 216.408 722.813 215.423C722.813 213.974 723.322 212.908 724.339 212.225C725.357 211.533 726.882 211.15 728.917 211.077L731.285 211.004V210.406C731.285 209.69 731.098 209.165 730.724 208.831C730.349 208.497 729.828 208.331 729.161 208.331C728.502 208.331 727.855 208.424 727.22 208.611C726.585 208.799 725.951 209.035 725.316 209.319L724.083 206.805C724.807 206.422 725.617 206.121 726.512 205.901C727.416 205.682 728.347 205.572 729.308 205.572ZM731.285 213.177L729.845 213.226C728.64 213.258 727.802 213.474 727.33 213.873C726.866 214.271 726.634 214.796 726.634 215.447C726.634 216.017 726.801 216.424 727.135 216.668C727.468 216.904 727.904 217.022 728.441 217.022C729.238 217.022 729.91 216.786 730.455 216.314C731.008 215.842 731.285 215.171 731.285 214.3V213.177Z" fill="black"/>
<path d="M638.091 249.5H634.148V237.864H638.17C639.326 237.864 640.318 238.097 641.148 238.562C641.981 239.025 642.621 239.689 643.068 240.557C643.515 241.424 643.739 242.462 643.739 243.67C643.739 244.883 643.513 245.924 643.062 246.795C642.616 247.667 641.97 248.335 641.125 248.801C640.284 249.267 639.273 249.5 638.091 249.5ZM636.256 247.676H637.989C638.799 247.676 639.475 247.528 640.017 247.233C640.559 246.934 640.966 246.489 641.239 245.898C641.511 245.303 641.648 244.561 641.648 243.67C641.648 242.78 641.511 242.042 641.239 241.455C640.966 240.864 640.563 240.422 640.028 240.131C639.498 239.835 638.839 239.688 638.051 239.688H636.256V247.676ZM649.685 249.5H645.741V237.864H649.764C650.92 237.864 651.912 238.097 652.741 238.562C653.575 239.025 654.215 239.689 654.662 240.557C655.109 241.424 655.332 242.462 655.332 243.67C655.332 244.883 655.107 245.924 654.656 246.795C654.209 247.667 653.563 248.335 652.719 248.801C651.878 249.267 650.866 249.5 649.685 249.5ZM647.849 247.676H649.582C650.393 247.676 651.069 247.528 651.611 247.233C652.152 246.934 652.56 246.489 652.832 245.898C653.105 245.303 653.241 244.561 653.241 243.67C653.241 242.78 653.105 242.042 652.832 241.455C652.56 240.864 652.156 240.422 651.622 240.131C651.092 239.835 650.433 239.688 649.645 239.688H647.849V247.676ZM661.354 237.318L657.604 251.25H655.803L659.553 237.318H661.354ZM662.757 237.864H665.337L668.791 246.295H668.928L672.382 237.864H674.962V249.5H672.939V241.506H672.831L669.615 249.466H668.104L664.888 241.489H664.78V249.5H662.757V237.864ZM677.257 237.864H679.837L683.291 246.295H683.428L686.882 237.864H689.462V249.5H687.439V241.506H687.331L684.115 249.466H682.604L679.388 241.489H679.28V249.5H677.257V237.864ZM696.416 237.318L692.666 251.25H690.865L694.615 237.318H696.416ZM699.314 249.5H697.064L701.161 237.864H703.763L707.865 249.5H705.615L702.507 240.25H702.416L699.314 249.5ZM699.388 244.938H705.524V246.631H699.388V244.938ZM710.892 249.5H708.642L712.739 237.864H715.341L719.443 249.5H717.193L714.085 240.25H713.994L710.892 249.5ZM710.966 244.938H717.102V246.631H710.966V244.938ZM722.47 249.5H720.22L724.317 237.864H726.919L731.021 249.5H728.771L725.663 240.25H725.572L722.47 249.5ZM722.544 244.938H728.68V246.631H722.544V244.938ZM734.048 249.5H731.798L735.895 237.864H738.497L742.599 249.5H740.349L737.241 240.25H737.151L734.048 249.5ZM734.122 244.938H740.259V246.631H734.122V244.938Z" fill="black"/>
<path d="M834.171 219.5L832.877 215.252H826.371L825.077 219.5H821L827.299 201.58H831.925L838.249 219.5H834.171ZM831.974 212.078L830.68 207.928C830.599 207.651 830.489 207.297 830.351 206.866C830.22 206.426 830.086 205.983 829.948 205.535C829.818 205.079 829.712 204.685 829.63 204.351C829.549 204.685 829.435 205.1 829.289 205.596C829.15 206.084 829.016 206.548 828.886 206.988C828.756 207.427 828.662 207.741 828.605 207.928L827.323 212.078H831.974ZM852.299 205.572C854.13 205.572 855.534 205.971 856.51 206.768C857.487 207.566 857.975 208.778 857.975 210.406V219.5H855.375L854.655 217.645H854.557C854.167 218.133 853.768 218.532 853.361 218.841C852.954 219.15 852.486 219.378 851.957 219.524C851.428 219.671 850.785 219.744 850.028 219.744C849.223 219.744 848.498 219.59 847.855 219.28C847.221 218.971 846.72 218.499 846.354 217.864C845.988 217.221 845.805 216.408 845.805 215.423C845.805 213.974 846.313 212.908 847.331 212.225C848.348 211.533 849.874 211.15 851.908 211.077L854.276 211.004V210.406C854.276 209.69 854.089 209.165 853.715 208.831C853.34 208.497 852.82 208.331 852.152 208.331C851.493 208.331 850.846 208.424 850.211 208.611C849.577 208.799 848.942 209.035 848.307 209.319L847.074 206.805C847.799 206.422 848.608 206.121 849.503 205.901C850.407 205.682 851.339 205.572 852.299 205.572ZM854.276 213.177L852.836 213.226C851.632 213.258 850.793 213.474 850.321 213.873C849.857 214.271 849.625 214.796 849.625 215.447C849.625 216.017 849.792 216.424 850.126 216.668C850.46 216.904 850.895 217.022 851.432 217.022C852.23 217.022 852.901 216.786 853.446 216.314C854 215.842 854.276 215.171 854.276 214.3V213.177ZM865.067 219.5L859.867 205.853H863.761L866.398 213.628C866.544 214.084 866.658 214.564 866.74 215.069C866.829 215.573 866.89 216.025 866.923 216.424H867.021C867.045 215.993 867.102 215.533 867.191 215.044C867.289 214.556 867.415 214.084 867.57 213.628L870.194 205.853H874.088L868.888 219.5H865.067ZM881.645 205.572C883.476 205.572 884.879 205.971 885.856 206.768C886.833 207.566 887.321 208.778 887.321 210.406V219.5H884.721L884 217.645H883.903C883.512 218.133 883.113 218.532 882.707 218.841C882.3 219.15 881.832 219.378 881.303 219.524C880.774 219.671 880.131 219.744 879.374 219.744C878.568 219.744 877.844 219.59 877.201 219.28C876.566 218.971 876.066 218.499 875.7 217.864C875.333 217.221 875.15 216.408 875.15 215.423C875.15 213.974 875.659 212.908 876.676 212.225C877.694 211.533 879.219 211.15 881.254 211.077L883.622 211.004V210.406C883.622 209.69 883.435 209.165 883.061 208.831C882.686 208.497 882.165 208.331 881.498 208.331C880.839 208.331 880.192 208.424 879.557 208.611C878.922 208.799 878.288 209.035 877.653 209.319L876.42 206.805C877.144 206.422 877.954 206.121 878.849 205.901C879.752 205.682 880.684 205.572 881.645 205.572ZM883.622 213.177L882.182 213.226C880.977 213.258 880.139 213.474 879.667 213.873C879.203 214.271 878.971 214.796 878.971 215.447C878.971 216.017 879.138 216.424 879.472 216.668C879.805 216.904 880.241 217.022 880.778 217.022C881.575 217.022 882.247 216.786 882.792 216.314C883.345 215.842 883.622 215.171 883.622 214.3V213.177ZM894.889 219.5H891.166V200.506H894.889V219.5ZM902.531 205.853V219.5H898.808V205.853H902.531ZM900.675 200.506C901.229 200.506 901.705 200.636 902.104 200.896C902.502 201.149 902.702 201.625 902.702 202.325C902.702 203.016 902.502 203.497 902.104 203.765C901.705 204.026 901.229 204.156 900.675 204.156C900.114 204.156 899.634 204.026 899.235 203.765C898.844 203.497 898.649 203.016 898.649 202.325C898.649 201.625 898.844 201.149 899.235 200.896C899.634 200.636 900.114 200.506 900.675 200.506ZM912.04 205.572C913.871 205.572 915.275 205.971 916.251 206.768C917.228 207.566 917.716 208.778 917.716 210.406V219.5H915.116L914.396 217.645H914.298C913.908 218.133 913.509 218.532 913.102 218.841C912.695 219.15 912.227 219.378 911.698 219.524C911.169 219.671 910.526 219.744 909.77 219.744C908.964 219.744 908.24 219.59 907.597 219.28C906.962 218.971 906.461 218.499 906.095 217.864C905.729 217.221 905.546 216.408 905.546 215.423C905.546 213.974 906.055 212.908 907.072 212.225C908.089 211.533 909.615 211.15 911.649 211.077L914.018 211.004V210.406C914.018 209.69 913.83 209.165 913.456 208.831C913.082 208.497 912.561 208.331 911.894 208.331C911.234 208.331 910.587 208.424 909.953 208.611C909.318 208.799 908.683 209.035 908.048 209.319L906.815 206.805C907.54 206.422 908.349 206.121 909.245 205.901C910.148 205.682 911.08 205.572 912.04 205.572ZM914.018 213.177L912.577 213.226C911.373 213.258 910.535 213.474 910.062 213.873C909.599 214.271 909.367 214.796 909.367 215.447C909.367 216.017 909.534 216.424 909.867 216.668C910.201 216.904 910.636 217.022 911.173 217.022C911.971 217.022 912.642 216.786 913.188 216.314C913.741 215.842 914.018 215.171 914.018 214.3V213.177ZM929.179 205.596C929.366 205.596 929.582 205.608 929.826 205.633C930.078 205.649 930.281 205.674 930.436 205.706L930.155 209.197C930.033 209.157 929.858 209.128 929.63 209.112C929.411 209.087 929.219 209.075 929.057 209.075C928.576 209.075 928.109 209.136 927.653 209.258C927.205 209.38 926.802 209.58 926.444 209.856C926.086 210.125 925.801 210.483 925.59 210.931C925.386 211.37 925.285 211.911 925.285 212.554V219.5H921.562V205.853H924.381L924.931 208.147H925.114C925.382 207.684 925.716 207.26 926.115 206.878C926.522 206.487 926.981 206.178 927.494 205.95C928.015 205.714 928.576 205.596 929.179 205.596Z" fill="black"/>
<path d="M826.091 249.5H822.148V237.864H826.17C827.326 237.864 828.318 238.097 829.148 238.562C829.981 239.025 830.621 239.689 831.068 240.557C831.515 241.424 831.739 242.462 831.739 243.67C831.739 244.883 831.513 245.924 831.062 246.795C830.616 247.667 829.97 248.335 829.125 248.801C828.284 249.267 827.273 249.5 826.091 249.5ZM824.256 247.676H825.989C826.799 247.676 827.475 247.528 828.017 247.233C828.559 246.934 828.966 246.489 829.239 245.898C829.511 245.303 829.648 244.561 829.648 243.67C829.648 242.78 829.511 242.042 829.239 241.455C828.966 240.864 828.563 240.422 828.028 240.131C827.498 239.835 826.839 239.688 826.051 239.688H824.256V247.676ZM837.685 249.5H833.741V237.864H837.764C838.92 237.864 839.912 238.097 840.741 238.562C841.575 239.025 842.215 239.689 842.662 240.557C843.109 241.424 843.332 242.462 843.332 243.67C843.332 244.883 843.107 245.924 842.656 246.795C842.209 247.667 841.563 248.335 840.719 248.801C839.878 249.267 838.866 249.5 837.685 249.5ZM835.849 247.676H837.582C838.393 247.676 839.069 247.528 839.611 247.233C840.152 246.934 840.56 246.489 840.832 245.898C841.105 245.303 841.241 244.561 841.241 243.67C841.241 242.78 841.105 242.042 840.832 241.455C840.56 240.864 840.156 240.422 839.622 240.131C839.092 239.835 838.433 239.688 837.645 239.688H835.849V247.676ZM849.354 237.318L845.604 251.25H843.803L847.553 237.318H849.354ZM850.757 237.864H853.337L856.791 246.295H856.928L860.382 237.864H862.962V249.5H860.939V241.506H860.831L857.615 249.466H856.104L852.888 241.489H852.78V249.5H850.757V237.864ZM865.257 237.864H867.837L871.291 246.295H871.428L874.882 237.864H877.462V249.5H875.439V241.506H875.331L872.115 249.466H870.604L867.388 241.489H867.28V249.5H865.257V237.864ZM884.416 237.318L880.666 251.25H878.865L882.615 237.318H884.416ZM887.314 249.5H885.064L889.161 237.864H891.763L895.865 249.5H893.615L890.507 240.25H890.416L887.314 249.5ZM887.388 244.938H893.524V246.631H887.388V244.938ZM898.892 249.5H896.642L900.739 237.864H903.341L907.443 249.5H905.193L902.085 240.25H901.994L898.892 249.5ZM898.966 244.938H905.102V246.631H898.966V244.938ZM910.47 249.5H908.22L912.317 237.864H914.919L919.021 249.5H916.771L913.663 240.25H913.572L910.47 249.5ZM910.544 244.938H916.68V246.631H910.544V244.938ZM922.048 249.5H919.798L923.895 237.864H926.497L930.599 249.5H928.349L925.241 240.25H925.151L922.048 249.5ZM922.122 244.938H928.259V246.631H922.122V244.938Z" fill="black"/>
<rect x="109.5" y="295" width="873" height="41" stroke="black"/>
<path d="M123 313.5L883.5 313.5" stroke="#76C9B2" stroke-width="4" stroke-linecap="round"/>
<rect x="184.5" y="294.5" width="42" height="42" rx="21" fill="#2E9F7F"/>
<path d="M207.827 325.5H204.055V315.173C204.055 314.888 204.059 314.538 204.067 314.123C204.076 313.7 204.088 313.269 204.104 312.829C204.12 312.382 204.137 311.979 204.153 311.621C204.063 311.726 203.88 311.91 203.604 312.17C203.335 312.422 203.083 312.65 202.847 312.854L200.796 314.501L198.977 312.231L204.727 307.653H207.827V325.5Z" fill="white"/>
<rect x="411.5" y="294.5" width="42" height="42" rx="21" fill="#2E9F7F"/>
<path d="M437.977 325.5H425.501V322.875L429.981 318.347C430.884 317.419 431.609 316.646 432.154 316.027C432.707 315.401 433.106 314.831 433.35 314.318C433.602 313.806 433.729 313.256 433.729 312.67C433.729 311.962 433.529 311.433 433.13 311.083C432.74 310.725 432.215 310.546 431.556 310.546C430.864 310.546 430.193 310.705 429.542 311.022C428.89 311.34 428.211 311.792 427.503 312.377L425.452 309.948C425.965 309.509 426.506 309.094 427.076 308.703C427.653 308.312 428.321 307.999 429.078 307.763C429.843 307.519 430.758 307.397 431.824 307.397C432.996 307.397 434.001 307.609 434.839 308.032C435.686 308.455 436.337 309.033 436.792 309.765C437.248 310.489 437.476 311.311 437.476 312.231C437.476 313.216 437.281 314.115 436.89 314.929C436.5 315.743 435.93 316.548 435.181 317.346C434.441 318.143 433.545 319.026 432.496 319.995L430.201 322.155V322.326H437.977V325.5Z" fill="white"/>
<rect x="638.5" y="294.5" width="42" height="42" rx="21" fill="#2E9F7F"/>
<path d="M664.281 311.645C664.281 312.467 664.11 313.179 663.768 313.781C663.426 314.383 662.962 314.876 662.376 315.258C661.799 315.641 661.148 315.922 660.423 316.101V316.174C661.856 316.353 662.942 316.792 663.683 317.492C664.431 318.192 664.806 319.128 664.806 320.3C664.806 321.341 664.549 322.273 664.037 323.095C663.532 323.917 662.751 324.564 661.693 325.036C660.635 325.508 659.272 325.744 657.604 325.744C656.619 325.744 655.699 325.663 654.845 325.5C653.998 325.345 653.201 325.105 652.452 324.78V321.569C653.217 321.96 654.019 322.257 654.857 322.46C655.695 322.656 656.476 322.753 657.201 322.753C658.552 322.753 659.496 322.521 660.033 322.058C660.578 321.586 660.851 320.926 660.851 320.08C660.851 319.584 660.724 319.165 660.472 318.823C660.22 318.481 659.78 318.221 659.154 318.042C658.535 317.862 657.669 317.773 656.554 317.773H655.199V314.88H656.578C657.677 314.88 658.511 314.778 659.081 314.575C659.658 314.363 660.049 314.078 660.252 313.72C660.464 313.354 660.57 312.939 660.57 312.475C660.57 311.84 660.375 311.344 659.984 310.986C659.593 310.628 658.942 310.449 658.031 310.449C657.461 310.449 656.94 310.522 656.468 310.668C656.004 310.807 655.585 310.978 655.211 311.181C654.837 311.376 654.507 311.568 654.222 311.755L652.477 309.155C653.176 308.65 653.994 308.231 654.93 307.897C655.874 307.564 656.997 307.397 658.299 307.397C660.139 307.397 661.595 307.767 662.669 308.508C663.744 309.248 664.281 310.294 664.281 311.645Z" fill="white"/>
<rect x="865.5" y="294.5" width="42" height="42" rx="21" fill="#2E9F7F"/>
<path d="M892.379 321.801H890.231V325.5H886.544V321.801H878.927V319.177L886.752 307.653H890.231V318.872H892.379V321.801ZM886.544 318.872V315.844C886.544 315.559 886.549 315.222 886.557 314.831C886.573 314.44 886.589 314.05 886.605 313.659C886.622 313.269 886.638 312.923 886.654 312.622C886.679 312.312 886.695 312.097 886.703 311.975H886.605C886.451 312.308 886.288 312.634 886.117 312.951C885.946 313.26 885.747 313.586 885.519 313.928L882.248 318.872H886.544Z" fill="white"/>
</svg>
