<svg width="24" height="25" viewBox="0 0 24 25" fill="none" xmlns="http://www.w3.org/2000/svg">
<g clip-path="url(#clip0_626_922)">
<path d="M7 24.5005C8.10456 24.5005 8.99999 23.6051 8.99999 22.5005C8.99999 21.3959 8.10456 20.5005 7 20.5005C5.89543 20.5005 5 21.3959 5 22.5005C5 23.6051 5.89543 24.5005 7 24.5005Z" fill="#EAECED"/>
<path d="M17 24.5005C18.1046 24.5005 19 23.6051 19 22.5005C19 21.3959 18.1046 20.5005 17 20.5005C15.8954 20.5005 15 21.3959 15 22.5005C15 23.6051 15.8954 24.5005 17 24.5005Z" fill="#EAECED"/>
<path d="M23 3.5H21V1.5C21 1.23478 20.8946 0.98043 20.7071 0.792893C20.5196 0.605357 20.2652 0.5 20 0.5C19.7348 0.5 19.4804 0.605357 19.2929 0.792893C19.1054 0.98043 19 1.23478 19 1.5V3.5H17C16.7348 3.5 16.4804 3.60536 16.2929 3.79289C16.1054 3.98043 16 4.23478 16 4.5C16 4.76522 16.1054 5.01957 16.2929 5.20711C16.4804 5.39464 16.7348 5.5 17 5.5H19V7.5C19 7.76522 19.1054 8.01957 19.2929 8.20711C19.4804 8.39464 19.7348 8.5 20 8.5C20.2652 8.5 20.5196 8.39464 20.7071 8.20711C20.8946 8.01957 21 7.76522 21 7.5V5.5H23C23.2652 5.5 23.5196 5.39464 23.7071 5.20711C23.8946 5.01957 24 4.76522 24 4.5C24 4.23478 23.8946 3.98043 23.7071 3.79289C23.5196 3.60536 23.2652 3.5 23 3.5Z" fill="#EAECED"/>
<path d="M21.771 10.226C21.6417 10.2018 21.5089 10.2035 21.3803 10.231C21.2516 10.2585 21.1297 10.3113 21.0216 10.3863C20.9136 10.4613 20.8214 10.5569 20.7506 10.6678C20.6798 10.7786 20.6316 10.9024 20.609 11.032C20.4843 11.7242 20.1203 12.3505 19.5808 12.8016C19.0412 13.2527 18.3603 13.4999 17.657 13.5H5.418L4.478 5.5H13C13.2652 5.5 13.5196 5.39464 13.7071 5.20711C13.8946 5.01957 14 4.76522 14 4.5C14 4.23478 13.8946 3.98043 13.7071 3.79289C13.5196 3.60536 13.2652 3.5 13 3.5H4.242L4.2 3.148C4.11382 2.4186 3.76306 1.74615 3.21419 1.2581C2.66532 0.770054 1.95647 0.500313 1.222 0.5L1 0.5C0.734784 0.5 0.48043 0.605357 0.292893 0.792893C0.105357 0.98043 0 1.23478 0 1.5C0 1.76522 0.105357 2.01957 0.292893 2.20711C0.48043 2.39464 0.734784 2.5 1 2.5H1.222C1.46693 2.50003 1.70334 2.58996 1.88637 2.75272C2.06941 2.91547 2.18634 3.13975 2.215 3.383L3.591 15.083C3.73385 16.2998 4.31848 17.4218 5.23391 18.236C6.14934 19.0502 7.33185 19.5 8.557 19.5H19C19.2652 19.5 19.5196 19.3946 19.7071 19.2071C19.8946 19.0196 20 18.7652 20 18.5C20 18.2348 19.8946 17.9804 19.7071 17.7929C19.5196 17.6054 19.2652 17.5 19 17.5H8.557C7.93652 17.5001 7.33127 17.3078 6.82461 16.9497C6.31796 16.5915 5.93483 16.085 5.728 15.5H17.657C18.8291 15.5001 19.9641 15.0884 20.8635 14.3368C21.763 13.5852 22.3698 12.5415 22.578 11.388C22.6014 11.2587 22.599 11.1261 22.5711 10.9977C22.5432 10.8693 22.4902 10.7477 22.4153 10.6398C22.3403 10.5319 22.2449 10.4398 22.1343 10.3688C22.0238 10.2978 21.9003 10.2493 21.771 10.226Z" fill="#EAECED"/>
</g>
<defs>
<clipPath id="clip0_626_922">
<rect width="24" height="24" fill="white" transform="translate(0 0.5)"/>
</clipPath>
</defs>
</svg>
