<svg width="42" height="42" viewBox="0 0 42 42" fill="none" xmlns="http://www.w3.org/2000/svg">
<g clip-path="url(#clip0_236_1594)">
<path d="M31.7361 20.1881C31.8018 25.9389 37.9319 27.8525 37.9998 27.877C37.9478 28.0118 37.0202 30.604 34.7702 33.2816C32.8251 35.5965 30.8062 37.9029 27.6259 37.9506C24.5013 37.9975 23.4964 36.4418 19.9238 36.4418C16.3522 36.4418 15.2358 37.9029 12.2778 37.9975C9.2081 38.0921 6.87051 35.4944 4.90936 33.1879C0.901552 28.4702 -2.16116 19.8565 1.9513 14.0421C3.99424 11.1547 7.64536 9.32632 11.608 9.27943C14.6224 9.23265 17.4676 10.9307 19.3103 10.9307C21.1518 10.9307 24.6094 8.88867 28.2442 9.18854C29.7656 9.24015 34.0371 9.68892 36.7797 12.9578C36.5586 13.0694 31.6831 15.3805 31.7361 20.1882M25.8635 6.06731C27.4934 4.46101 28.5902 2.22501 28.2909 0C25.9417 0.0768703 23.1012 1.27464 21.4162 2.87998C19.9061 4.30171 18.5837 6.57712 18.9405 8.75801C21.559 8.923 24.2337 7.67458 25.8635 6.06731Z" fill="black"/>
</g>
<defs>
<clipPath id="clip0_236_1594">
<rect width="42" height="42" fill="white"/>
</clipPath>
</defs>
</svg>
