<svg width="26" height="32" viewBox="0 0 26 32" fill="none" xmlns="http://www.w3.org/2000/svg">
<g clip-path="url(#clip0_563_3552)">
<path d="M20.5833 0H5.41667C3.98061 0.00211714 2.60385 0.705176 1.5884 1.95496C0.572955 3.20474 0.00172018 4.89921 0 6.66667L0 25.3333C0.00172018 27.1008 0.572955 28.7953 1.5884 30.045C2.60385 31.2948 3.98061 31.9979 5.41667 32H20.5833C22.0194 31.9979 23.3961 31.2948 24.4116 30.045C25.427 28.7953 25.9983 27.1008 26 25.3333V6.66667C25.9983 4.89921 25.427 3.20474 24.4116 1.95496C23.3961 0.705176 22.0194 0.00211714 20.5833 0V0ZM23.8333 6.66667H16.25V2.66667H20.5833C21.4453 2.66667 22.2719 3.08809 22.8814 3.83824C23.4909 4.58839 23.8333 5.6058 23.8333 6.66667ZM11.9167 2.66667H14.0833V9.33333C14.0833 9.68696 13.9692 10.0261 13.766 10.2761C13.5629 10.5262 13.2873 10.6667 13 10.6667C12.7127 10.6667 12.4371 10.5262 12.234 10.2761C12.0308 10.0261 11.9167 9.68696 11.9167 9.33333V2.66667ZM5.41667 2.66667H9.75V6.66667H2.16667C2.16667 5.6058 2.50908 4.58839 3.11857 3.83824C3.72806 3.08809 4.55471 2.66667 5.41667 2.66667V2.66667ZM20.5833 29.3333H5.41667C4.55471 29.3333 3.72806 28.9119 3.11857 28.1618C2.50908 27.4116 2.16667 26.3942 2.16667 25.3333V9.33333H9.75C9.75 10.3942 10.0924 11.4116 10.7019 12.1618C11.3114 12.9119 12.138 13.3333 13 13.3333C13.862 13.3333 14.6886 12.9119 15.2981 12.1618C15.9076 11.4116 16.25 10.3942 16.25 9.33333H23.8333V25.3333C23.8333 26.3942 23.4909 27.4116 22.8814 28.1618C22.2719 28.9119 21.4453 29.3333 20.5833 29.3333ZM21.6667 25.3333C21.6667 25.687 21.5525 26.0261 21.3494 26.2761C21.1462 26.5262 20.8706 26.6667 20.5833 26.6667H17.3333C17.046 26.6667 16.7705 26.5262 16.5673 26.2761C16.3641 26.0261 16.25 25.687 16.25 25.3333C16.25 24.9797 16.3641 24.6406 16.5673 24.3905C16.7705 24.1405 17.046 24 17.3333 24H20.5833C20.8706 24 21.1462 24.1405 21.3494 24.3905C21.5525 24.6406 21.6667 24.9797 21.6667 25.3333Z" fill="white"/>
</g>
<defs>
<clipPath id="clip0_563_3552">
<rect width="26" height="32" fill="white"/>
</clipPath>
</defs>
</svg>
