<svg width="42" height="43" viewBox="0 0 42 43" fill="none" xmlns="http://www.w3.org/2000/svg">
<path d="M15.75 6.21094C13.0813 6.21094 10.5218 7.27109 8.63474 9.15818C6.74765 11.0453 5.6875 13.6047 5.6875 16.2734V28.7107C5.6875 29.0588 5.82578 29.3926 6.07192 29.6388C6.31806 29.8849 6.6519 30.0232 7 30.0232C7.3481 30.0232 7.68194 29.8849 7.92808 29.6388C8.17422 29.3926 8.3125 29.0588 8.3125 28.7107V16.2734C8.3125 14.3009 9.09609 12.4091 10.4909 11.0143C11.8857 9.61953 13.7775 8.83594 15.75 8.83594H28.0228C28.3708 8.83594 28.7047 8.69766 28.9508 8.45152C29.197 8.20537 29.3353 7.87153 29.3353 7.52344C29.3353 7.17534 29.197 6.8415 28.9508 6.59536C28.7047 6.34922 28.3708 6.21094 28.0228 6.21094H15.75Z" fill="#FFFFFF"/>
<path fill-rule="evenodd" clip-rule="evenodd" d="M32.2051 12.4111C26.5026 11.777 20.7472 11.777 15.0446 12.4111C14.2556 12.499 13.5195 12.8512 12.9559 13.4103C12.3923 13.9695 12.0344 14.7028 11.9401 15.4911C11.2673 21.2429 11.2673 27.0537 11.9401 32.8056C12.0341 33.594 12.3919 34.3274 12.9556 34.8866C13.5192 35.4458 14.2555 35.7979 15.0446 35.8856C20.7164 36.5191 26.5334 36.5191 32.2051 35.8856C32.9943 35.7979 33.7306 35.4458 34.2942 34.8866C34.8579 34.3274 35.2157 33.594 35.3097 32.8056C35.9825 27.0537 35.9825 21.2429 35.3097 15.4911C35.2154 14.7028 34.8575 13.9695 34.2939 13.4103C33.7303 12.8512 32.9942 12.499 32.2051 12.4111ZM15.3369 15.0203C20.8144 14.4078 26.4354 14.4078 31.9129 15.0203C32.1124 15.0424 32.2987 15.1311 32.4416 15.2721C32.5844 15.4131 32.6756 15.5981 32.7004 15.7973C33.3514 21.3456 33.3514 26.951 32.7004 32.4993C32.6756 32.6985 32.5844 32.8835 32.4416 33.0245C32.2987 33.1655 32.1124 33.2542 31.9129 33.2763C26.4354 33.8888 20.8144 33.8888 15.3369 33.2763C15.1375 33.2539 14.9514 33.1651 14.8086 33.0242C14.6657 32.8833 14.5745 32.6984 14.5494 32.4993C13.8984 26.951 13.8984 21.3456 14.5494 15.7973C14.5745 15.5982 14.6657 15.4133 14.8086 15.2724C14.9514 15.1315 15.1375 15.0427 15.3369 15.0203Z" fill="#FFFFFF"/>
</svg>
