<svg width="32" height="33" viewBox="0 0 32 33" fill="none" xmlns="http://www.w3.org/2000/svg">
<g clip-path="url(#clip0_550_5553)">
<path d="M7.33301 23.2471C8.43758 23.2471 9.33301 22.3516 9.33301 21.2471C9.33301 20.1425 8.43758 19.2471 7.33301 19.2471C6.22844 19.2471 5.33301 20.1425 5.33301 21.2471C5.33301 22.3516 6.22844 23.2471 7.33301 23.2471Z" fill="white"/>
<path d="M25.3333 4.58008H6.66667C4.89921 4.5822 3.20474 5.28525 1.95496 6.53504C0.705176 7.78482 0.00211714 9.47928 0 11.2467L0 21.9134C0.00211714 23.6809 0.705176 25.3753 1.95496 26.6251C3.20474 27.8749 4.89921 28.578 6.66667 28.5801H25.3333C27.1008 28.578 28.7953 27.8749 30.045 26.6251C31.2948 25.3753 31.9979 23.6809 32 21.9134V11.2467C31.9979 9.47928 31.2948 7.78482 30.045 6.53504C28.7953 5.28525 27.1008 4.5822 25.3333 4.58008V4.58008ZM6.66667 7.24674H25.3333C26.3942 7.24674 27.4116 7.66817 28.1618 8.41832C28.9119 9.16846 29.3333 10.1859 29.3333 11.2467H2.66667C2.66667 10.1859 3.08809 9.16846 3.83824 8.41832C4.58839 7.66817 5.6058 7.24674 6.66667 7.24674V7.24674ZM25.3333 25.9134H6.66667C5.6058 25.9134 4.58839 25.492 3.83824 24.7418C3.08809 23.9917 2.66667 22.9743 2.66667 21.9134V13.9134H29.3333V21.9134C29.3333 22.9743 28.9119 23.9917 28.1618 24.7418C27.4116 25.492 26.3942 25.9134 25.3333 25.9134Z" fill="white"/>
</g>
<defs>
<clipPath id="clip0_550_5553">
<rect width="32" height="32" fill="white" transform="translate(0 0.580078)"/>
</clipPath>
</defs>
</svg>
