<svg width="24" height="25" viewBox="0 0 24 25" fill="none" xmlns="http://www.w3.org/2000/svg">
<g clip-path="url(#clip0_766_937)">
<path d="M9.87823 18.6454C10.1568 18.9242 10.4876 19.1454 10.8517 19.2963C11.2158 19.4471 11.6061 19.5248 12.0002 19.5248C12.3944 19.5248 12.7846 19.4471 13.1487 19.2963C13.5128 19.1454 13.8436 18.9242 14.1222 18.6454L17.3332 15.4344C17.5054 15.244 17.5977 14.9947 17.5911 14.7381C17.5846 14.4815 17.4795 14.2372 17.2978 14.0559C17.1161 13.8746 16.8716 13.7701 16.615 13.764C16.3584 13.758 16.1093 13.8509 15.9192 14.0234L12.9932 16.9504L13.0002 1.52344C13.0002 1.25822 12.8949 1.00387 12.7073 0.816331C12.5198 0.628794 12.2654 0.523438 12.0002 0.523438V0.523438C11.735 0.523438 11.4807 0.628794 11.2931 0.816331C11.1056 1.00387 11.0002 1.25822 11.0002 1.52344L10.9912 16.9314L8.08123 14.0234C7.89359 13.8359 7.63914 13.7306 7.37387 13.7307C7.1086 13.7308 6.85423 13.8363 6.66673 14.0239C6.47922 14.2116 6.37393 14.466 6.37402 14.7313C6.37412 14.9966 6.47959 15.2509 6.66723 15.4384L9.87823 18.6454Z" fill="#FFFFFF"/>
<path d="M23 16.5234C22.7348 16.5234 22.4804 16.6288 22.2929 16.8163C22.1054 17.0039 22 17.2582 22 17.5234V21.5234C22 21.7886 21.8946 22.043 21.7071 22.2305C21.5196 22.4181 21.2652 22.5234 21 22.5234H3C2.73478 22.5234 2.48043 22.4181 2.29289 22.2305C2.10536 22.043 2 21.7886 2 21.5234V17.5234C2 17.2582 1.89464 17.0039 1.70711 16.8163C1.51957 16.6288 1.26522 16.5234 1 16.5234C0.734784 16.5234 0.48043 16.6288 0.292893 16.8163C0.105357 17.0039 0 17.2582 0 17.5234L0 21.5234C0 22.3191 0.31607 23.0821 0.87868 23.6447C1.44129 24.2074 2.20435 24.5234 3 24.5234H21C21.7956 24.5234 22.5587 24.2074 23.1213 23.6447C23.6839 23.0821 24 22.3191 24 21.5234V17.5234C24 17.2582 23.8946 17.0039 23.7071 16.8163C23.5196 16.6288 23.2652 16.5234 23 16.5234Z" fill="#FFFFFF"/>
</g>
<defs>
<clipPath id="clip0_766_937">
<rect width="24" height="24" fill="white" transform="translate(0 0.523438)"/>
</clipPath>
</defs>
</svg>
