<svg width="47" height="43" viewBox="0 0 47 43" fill="none" xmlns="http://www.w3.org/2000/svg">
<rect y="0.5" width="46.3448" height="42" rx="20" fill="white" fill-opacity="0.9"/>
<mask id="mask0_360_2125" style="mask-type:alpha" maskUnits="userSpaceOnUse" x="11" y="10" width="24" height="23">
<path d="M22.5295 31.1655C22.7896 31.4244 23.2102 31.4244 23.4703 31.1655L31.4104 23.2598L32.4921 22.1828C32.4921 22.1827 32.4922 22.1827 32.4922 22.1827C33.0757 21.6019 33.5388 20.9122 33.8548 20.1529C34.1708 19.3936 34.3335 18.5795 34.3335 17.7574C34.3335 16.9353 34.1708 16.1213 33.8548 15.3619C33.5388 14.6026 33.0757 13.9128 32.4921 13.332C31.9088 12.7511 31.2165 12.2904 30.4547 11.9761C29.6928 11.6618 28.8763 11.5001 28.0518 11.5001C27.2272 11.5001 26.4107 11.6618 25.6488 11.9761C24.8869 12.2904 24.1945 12.7512 23.6112 13.3323L22.9999 13.9409L22.3885 13.3321C21.2103 12.1591 19.613 11.5006 17.948 11.5006C16.2831 11.5006 14.6857 12.1591 13.5076 13.3321C12.3293 14.5053 11.6668 16.0971 11.6668 17.7574C11.6668 19.4178 12.3293 21.0095 13.5076 22.1827L14.5894 23.2598L22.5295 31.1655Z" fill="#D9D9D9" stroke="#348E2B" stroke-width="1.33333" stroke-linecap="round" stroke-linejoin="round"/>
</mask>
<g mask="url(#mask0_360_2125)">
<mask id="path-3-outside-1_360_2125" maskUnits="userSpaceOnUse" x="11.667" y="10.8332" width="8" height="11" fill="black">
<rect fill="white" x="11.667" y="10.8332" width="8" height="11"/>
<path fill-rule="evenodd" clip-rule="evenodd" d="M15.667 20.1369C17.4329 19.4381 18.667 17.8421 18.667 15.9851C18.667 14.128 17.4329 12.532 15.667 11.8332C13.9011 12.532 12.667 14.128 12.667 15.9851C12.667 17.8421 13.9011 19.4381 15.667 20.1369Z"/>
</mask>
<path fill-rule="evenodd" clip-rule="evenodd" d="M15.667 20.1369C17.4329 19.4381 18.667 17.8421 18.667 15.9851C18.667 14.128 17.4329 12.532 15.667 11.8332C13.9011 12.532 12.667 14.128 12.667 15.9851C12.667 17.8421 13.9011 19.4381 15.667 20.1369Z" fill="#70D767"/>
<path d="M15.667 20.1369L15.4217 20.7568L15.667 20.8539L15.9123 20.7568L15.667 20.1369ZM15.667 11.8332L15.9123 11.2133L15.667 11.1162L15.4217 11.2133L15.667 11.8332ZM18.0004 15.9851C18.0004 17.529 16.9722 18.9034 15.4217 19.517L15.9123 20.7568C17.8936 19.9727 19.3337 18.1552 19.3337 15.9851H18.0004ZM15.4217 12.4531C16.9722 13.0667 18.0004 14.4411 18.0004 15.9851H19.3337C19.3337 13.8149 17.8936 11.9974 15.9123 11.2133L15.4217 12.4531ZM13.3337 15.9851C13.3337 14.4411 14.3618 13.0667 15.9123 12.4531L15.4217 11.2133C13.4404 11.9974 12.0003 13.8149 12.0003 15.9851H13.3337ZM15.9123 19.517C14.3618 18.9034 13.3337 17.529 13.3337 15.9851H12.0003C12.0003 18.1552 13.4404 19.9727 15.4217 20.7568L15.9123 19.517Z" fill="#F9FCF8" mask="url(#path-3-outside-1_360_2125)"/>
<mask id="path-5-outside-2_360_2125" maskUnits="userSpaceOnUse" x="10.6603" y="10.7559" width="17.5263" height="19.3564" fill="black">
<rect fill="white" x="10.6603" y="10.7559" width="17.5263" height="19.3564"/>
<path fill-rule="evenodd" clip-rule="evenodd" d="M22.9802 14.4046C24.7171 16.7715 24.9948 20.0472 23.4251 22.7659C21.8555 25.4845 18.8802 26.8819 15.9621 26.5613C14.2251 24.1944 13.9475 20.9188 15.5172 18.2C17.0867 15.4815 20.0621 14.0841 22.9802 14.4046Z"/>
</mask>
<path fill-rule="evenodd" clip-rule="evenodd" d="M22.9802 14.4046C24.7171 16.7715 24.9948 20.0472 23.4251 22.7659C21.8555 25.4845 18.8802 26.8819 15.9621 26.5613C14.2251 24.1944 13.9475 20.9188 15.5172 18.2C17.0867 15.4815 20.0621 14.0841 22.9802 14.4046Z" fill="#70D767"/>
<path d="M22.9802 14.4046L23.5176 14.0102L23.3443 13.774L23.053 13.742L22.9802 14.4046ZM15.9621 26.5613L15.4246 26.9558L15.598 27.192L15.8893 27.224L15.9621 26.5613ZM22.4427 14.7991C24.0278 16.959 24.2813 19.9495 22.8477 22.4326L24.0024 23.0993C25.7082 20.1449 25.4064 16.5841 23.5176 14.0102L22.4427 14.7991ZM22.8477 22.4326C21.4142 24.9155 18.6978 26.1912 16.0349 25.8987L15.8893 27.224C19.0625 27.5726 22.2968 26.0535 24.0024 23.0993L22.8477 22.4326ZM16.4996 26.1669C14.9145 24.007 14.6609 21.0164 16.0945 18.5334L14.9398 17.8667C13.2341 20.8211 13.5358 24.3819 15.4246 26.9558L16.4996 26.1669ZM16.0945 18.5334C17.528 16.0505 20.2444 14.7748 22.9074 15.0673L23.053 13.742C19.8797 13.3934 16.6454 14.9125 14.9398 17.8667L16.0945 18.5334Z" fill="#F9FCF8" mask="url(#path-5-outside-2_360_2125)"/>
<mask id="path-7-outside-3_360_2125" maskUnits="userSpaceOnUse" x="4.60538" y="11.7026" width="16.2779" height="17.2046" fill="black">
<rect fill="white" x="4.60538" y="11.7026" width="16.2779" height="17.2046"/>
<path fill-rule="evenodd" clip-rule="evenodd" d="M15.6827 25.6258C17.3557 23.3954 17.4675 20.2367 15.7465 17.8302C14.3193 15.8347 11.9953 14.8646 9.73129 15.0832C8.05828 17.3136 7.94645 20.4724 9.66749 22.8788C11.0946 24.8744 13.4187 25.8444 15.6827 25.6258Z"/>
</mask>
<path fill-rule="evenodd" clip-rule="evenodd" d="M15.6827 25.6258C17.3557 23.3954 17.4675 20.2367 15.7465 17.8302C14.3193 15.8347 11.9953 14.8646 9.73129 15.0832C8.05828 17.3136 7.94645 20.4724 9.66749 22.8788C11.0946 24.8744 13.4187 25.8444 15.6827 25.6258Z" fill="#70D767"/>
<path d="M15.6827 25.6258L15.7467 26.2894L16.0395 26.2611L16.216 26.0258L15.6827 25.6258ZM9.73129 15.0832L9.66722 14.4197L9.37447 14.4479L9.19799 14.6832L9.73129 15.0832ZM15.2042 18.218C16.7532 20.3838 16.651 23.2239 15.1494 25.2258L16.216 26.0258C18.0603 23.567 18.1819 20.0895 16.2887 17.4424L15.2042 18.218ZM9.79537 15.7468C11.8303 15.5503 13.92 16.4223 15.2042 18.218L16.2887 17.4424C14.7187 15.247 12.1603 14.1789 9.66722 14.4197L9.79537 15.7468ZM10.2098 22.491C8.66081 20.3252 8.76295 17.4852 10.2646 15.4833L9.19799 14.6832C7.35362 17.142 7.23209 20.6195 9.12523 23.2667L10.2098 22.491ZM15.6186 24.9622C13.5837 25.1587 11.494 24.2868 10.2098 22.491L9.12523 23.2667C10.6953 25.462 13.2537 26.5301 15.7467 26.2894L15.6186 24.9622Z" fill="#F9FCF8" mask="url(#path-7-outside-3_360_2125)"/>
<path d="M22.5295 31.1655C22.7896 31.4244 23.2102 31.4244 23.4703 31.1655L31.4104 23.2598L32.4921 22.1828C32.4921 22.1827 32.4922 22.1827 32.4922 22.1827C33.0757 21.6019 33.5388 20.9122 33.8548 20.1529C34.1708 19.3936 34.3335 18.5795 34.3335 17.7574C34.3335 16.9353 34.1708 16.1213 33.8548 15.3619C33.5388 14.6026 33.0757 13.9128 32.4921 13.332C31.9088 12.7511 31.2165 12.2904 30.4547 11.9761C29.6928 11.6618 28.8763 11.5001 28.0518 11.5001C27.2272 11.5001 26.4107 11.6618 25.6488 11.9761C24.8869 12.2904 24.1945 12.7512 23.6112 13.3323L22.9999 13.9409L22.3885 13.3321C21.2103 12.1591 19.613 11.5006 17.948 11.5006C16.2831 11.5006 14.6857 12.1591 13.5076 13.3321C12.3293 14.5053 11.6668 16.0971 11.6668 17.7574C11.6668 19.4178 12.3293 21.0095 13.5076 22.1827L14.5894 23.2598L22.5295 31.1655Z" stroke="#348E2B" stroke-width="1.33333" stroke-linecap="round" stroke-linejoin="round"/>
</g>
</svg>
