<svg width="42" height="42" viewBox="0 0 42 42" fill="none" xmlns="http://www.w3.org/2000/svg">
<path d="M38.1596 17.5726H36.75V17.5H21V24.5H30.8901C29.4473 28.5749 25.5701 31.5 21 31.5C15.2014 31.5 10.5 26.7986 10.5 21C10.5 15.2014 15.2014 10.5 21 10.5C23.6766 10.5 26.1117 11.5097 27.9659 13.1591L32.9158 8.20925C29.7903 5.29638 25.6095 3.5 21 3.5C11.3356 3.5 3.5 11.3356 3.5 21C3.5 30.6644 11.3356 38.5 21 38.5C30.6644 38.5 38.5 30.6644 38.5 21C38.5 19.8266 38.3792 18.6813 38.1596 17.5726Z" fill="#FFC107"/>
<path d="M5.5177 12.8546L11.2673 17.0712C12.8231 13.2195 16.5908 10.5 21 10.5C23.6766 10.5 26.1117 11.5097 27.9658 13.1591L32.9157 8.20925C29.7902 5.29638 25.6095 3.5 21 3.5C14.2782 3.5 8.44895 7.29487 5.5177 12.8546Z" fill="#FF3D00"/>
<path d="M21 38.5C25.5203 38.5 29.6275 36.7701 32.7329 33.957L27.3167 29.3737C25.5006 30.7548 23.2816 31.5018 21 31.5C16.4483 31.5 12.5834 28.5976 11.1274 24.5472L5.42065 28.9441C8.3169 34.6115 14.1987 38.5 21 38.5Z" fill="#4CAF50"/>
<path d="M38.1596 17.5726H36.75V17.5H21V24.5H30.8901C30.1999 26.4394 28.9567 28.134 27.314 29.3746L27.3166 29.3729L32.7329 33.9561C32.3496 34.3044 38.5 29.75 38.5 21C38.5 19.8266 38.3792 18.6813 38.1596 17.5726Z" fill="#1976D2"/>
</svg>
