<svg width="25" height="24" viewBox="0 0 25 24" fill="none" xmlns="http://www.w3.org/2000/svg">
<path d="M8.3 2H16.7C19.9 2 22.5 4.6 22.5 7.8V16.2C22.5 17.7383 21.8889 19.2135 20.8012 20.3012C19.7135 21.3889 18.2383 22 16.7 22H8.3C5.1 22 2.5 19.4 2.5 16.2V7.8C2.5 6.26174 3.11107 4.78649 4.19878 3.69878C5.28649 2.61107 6.76174 2 8.3 2ZM8.1 4C7.14522 4 6.22955 4.37928 5.55442 5.05442C4.87928 5.72955 4.5 6.64522 4.5 7.6V16.4C4.5 18.39 6.11 20 8.1 20H16.9C17.8548 20 18.7705 19.6207 19.4456 18.9456C20.1207 18.2705 20.5 17.3548 20.5 16.4V7.6C20.5 5.61 18.89 4 16.9 4H8.1ZM17.75 5.5C18.0815 5.5 18.3995 5.6317 18.6339 5.86612C18.8683 6.10054 19 6.41848 19 6.75C19 7.08152 18.8683 7.39946 18.6339 7.63388C18.3995 7.8683 18.0815 8 17.75 8C17.4185 8 17.1005 7.8683 16.8661 7.63388C16.6317 7.39946 16.5 7.08152 16.5 6.75C16.5 6.41848 16.6317 6.10054 16.8661 5.86612C17.1005 5.6317 17.4185 5.5 17.75 5.5ZM12.5 7C13.8261 7 15.0979 7.52678 16.0355 8.46447C16.9732 9.40215 17.5 10.6739 17.5 12C17.5 13.3261 16.9732 14.5979 16.0355 15.5355C15.0979 16.4732 13.8261 17 12.5 17C11.1739 17 9.90215 16.4732 8.96447 15.5355C8.02678 14.5979 7.5 13.3261 7.5 12C7.5 10.6739 8.02678 9.40215 8.96447 8.46447C9.90215 7.52678 11.1739 7 12.5 7ZM12.5 9C11.7044 9 10.9413 9.31607 10.3787 9.87868C9.81607 10.4413 9.5 11.2044 9.5 12C9.5 12.7956 9.81607 13.5587 10.3787 14.1213C10.9413 14.6839 11.7044 15 12.5 15C13.2956 15 14.0587 14.6839 14.6213 14.1213C15.1839 13.5587 15.5 12.7956 15.5 12C15.5 11.2044 15.1839 10.4413 14.6213 9.87868C14.0587 9.31607 13.2956 9 12.5 9Z" fill="black"/>
</svg>
