<svg width="84" height="87" viewBox="0 0 84 87" fill="none" xmlns="http://www.w3.org/2000/svg">
<path fill-rule="evenodd" clip-rule="evenodd" d="M74.3125 57.8748V28.5079L62.5625 32.7473V44.9845C62.5625 46.1655 62.0983 47.2982 61.2719 48.1333C60.4456 48.9684 59.3249 49.4376 58.1562 49.4376C56.9876 49.4376 55.8669 48.9684 55.0406 48.1333C54.2142 47.2982 53.75 46.1655 53.75 44.9845V35.9298L40.5312 40.7035V76.851L68.5961 66.211C70.275 65.5743 71.7217 64.4351 72.7431 62.9456C73.7646 61.456 74.312 59.687 74.3125 57.8748ZM61.0703 23.8291L70.4702 20.4388C70.1381 20.2155 69.795 20.0094 69.4421 19.8213L50.8066 10.4104C49.7229 9.86279 48.539 9.54695 47.329 9.48259C46.119 9.41823 44.9089 9.60673 43.7743 10.0363L38.2459 12.1323L60.1244 23.1879C60.4769 23.366 60.7902 23.5798 61.0644 23.8291H61.0703ZM26.9835 16.3954L49.7667 27.9141L36.4129 32.7295L14.0585 21.4304C14.4815 21.181 14.9319 20.9653 15.4097 20.7832L26.9835 16.3954ZM31.7188 40.3176L9.6875 29.1848V59.2107C9.68865 60.8646 10.1454 62.4854 11.0067 63.8917C11.8679 65.298 13.0996 66.4342 14.5637 67.1729L31.7188 75.8416V40.3176ZM0.875 29.1254C0.875 26.5366 1.42725 24.0429 2.43775 21.7866C2.61407 20.9561 3.02177 20.1938 3.61275 19.5898C5.622 16.3835 8.63588 13.8423 12.3078 12.447L40.6899 1.70008C42.9588 0.839972 45.3788 0.461962 47.7988 0.589662C50.2188 0.717363 52.5867 1.34803 54.7546 2.44227L73.3901 11.8591C76.316 13.3395 78.7764 15.6138 80.4957 18.4273C82.215 21.2409 83.1254 24.4826 83.125 27.7895V57.8748C83.1248 61.501 82.0296 65.0409 79.9856 68.0212C77.9416 71.0015 75.0462 73.2804 71.6864 74.5532L43.3219 85.3001C41.0521 86.161 38.631 86.5395 36.21 86.4118C33.7889 86.2841 31.42 85.653 29.2512 84.5579L10.6158 75.141C7.68878 73.6615 5.22722 71.3875 3.50682 68.5739C1.78641 65.7603 0.875111 62.5182 0.875 59.2107V29.1254Z" fill="#154A3B"/>
</svg>
