<svg width="28" height="28" viewBox="0 0 28 28" fill="none" xmlns="http://www.w3.org/2000/svg">
<path fill-rule="evenodd" clip-rule="evenodd" d="M25.6667 9.67515C25.6667 13.7305 22.365 17.0181 18.2933 17.0181C17.5513 17.0181 15.8597 16.8478 15.0372 16.1641L14.0082 17.1885C13.4027 17.7916 13.566 17.969 13.8355 18.2606C13.9475 18.3831 14.0782 18.5243 14.1797 18.7261C14.1797 18.7261 15.0372 19.9208 14.1797 21.1166C13.6652 21.7991 12.2243 22.7546 10.5793 21.1166L10.2363 21.4573C10.2363 21.4573 11.2642 22.6531 10.4078 23.849C9.89334 24.5315 8.52134 25.214 7.32084 24.0193L6.12151 25.214C5.29784 26.0341 4.29218 25.5558 3.89318 25.214L2.86301 24.1896C1.90284 23.233 2.46284 22.197 2.86301 21.798L11.7787 12.9196C11.7787 12.9196 10.9212 11.5546 10.9212 9.67631C10.9212 5.62098 14.2228 2.33331 18.2945 2.33331C22.3662 2.33331 25.6667 5.62098 25.6667 9.67515ZM18.2945 12.2371C18.975 12.2384 19.6282 11.9693 20.1104 11.4891C20.5926 11.0089 20.8643 10.3568 20.8658 9.67631C20.8652 9.33925 20.7982 9.00561 20.6687 8.69445C20.5391 8.38328 20.3496 8.10068 20.1108 7.86277C19.872 7.62487 19.5887 7.43632 19.2771 7.3079C18.9655 7.17948 18.6316 7.1137 18.2945 7.11431C17.9575 7.1137 17.6236 7.17948 17.3119 7.3079C17.0003 7.43632 16.717 7.62487 16.4782 7.86277C16.2395 8.10068 16.0499 8.38328 15.9203 8.69445C15.7908 9.00561 15.7238 9.33925 15.7232 9.67631C15.7247 10.3568 15.9965 11.0089 16.4786 11.4891C16.9608 11.9693 17.614 12.2384 18.2945 12.2371Z" fill="black"/>
</svg>
