<svg width="24" height="25" viewBox="0 0 24 25" fill="none" xmlns="http://www.w3.org/2000/svg">
<g clip-path="url(#clip0_236_1579)">
<path d="M23.2708 9.91885C21.7198 7.39285 18.1918 3.15485 11.9998 3.15485C5.80781 3.15485 2.27981 7.39285 0.728807 9.91885C0.249335 10.6944 -0.00463867 11.5881 -0.00463867 12.4998C-0.00463867 13.4116 0.249335 14.3053 0.728807 15.0808C2.27981 17.6068 5.80781 21.8448 11.9998 21.8448C18.1918 21.8448 21.7198 17.6068 23.2708 15.0808C23.7503 14.3053 24.0043 13.4116 24.0043 12.4998C24.0043 11.5881 23.7503 10.6944 23.2708 9.91885ZM21.5658 14.0338C20.2338 16.1998 17.2188 19.8448 11.9998 19.8448C6.78081 19.8448 3.76581 16.1998 2.43381 14.0338C2.14894 13.5729 1.99806 13.0417 1.99806 12.4998C1.99806 11.958 2.14894 11.4268 2.43381 10.9658C3.76581 8.79985 6.78081 5.15485 11.9998 5.15485C17.2188 5.15485 20.2338 8.79585 21.5658 10.9658C21.8507 11.4268 22.0016 11.958 22.0016 12.4998C22.0016 13.0417 21.8507 13.5729 21.5658 14.0338Z" fill="black"/>
<path d="M11.9998 7.49982C11.0109 7.49982 10.0442 7.79306 9.22191 8.34247C8.39966 8.89188 7.7588 9.67277 7.38036 10.5864C7.00192 11.5 6.90291 12.5054 7.09583 13.4753C7.28876 14.4452 7.76496 15.3361 8.46422 16.0354C9.16349 16.7346 10.0544 17.2108 11.0243 17.4037C11.9942 17.5967 12.9995 17.4977 13.9132 17.1192C14.8268 16.7408 15.6077 16.0999 16.1571 15.2777C16.7065 14.4554 16.9998 13.4887 16.9998 12.4998C16.9982 11.1742 16.4709 9.90337 15.5335 8.96604C14.5962 8.0287 13.3254 7.5014 11.9998 7.49982ZM11.9998 15.4998C11.4064 15.4998 10.8264 15.3239 10.333 14.9942C9.8397 14.6646 9.45518 14.196 9.22812 13.6479C9.00106 13.0997 8.94165 12.4965 9.0574 11.9145C9.17316 11.3326 9.45888 10.7981 9.87844 10.3785C10.298 9.95894 10.8325 9.67322 11.4145 9.55746C11.9964 9.44171 12.5996 9.50112 13.1478 9.72818C13.696 9.95524 14.1645 10.3398 14.4942 10.8331C14.8238 11.3265 14.9998 11.9065 14.9998 12.4998C14.9998 13.2955 14.6837 14.0585 14.1211 14.6211C13.5585 15.1837 12.7954 15.4998 11.9998 15.4998Z" fill="black"/>
</g>
<defs>
<clipPath id="clip0_236_1579">
<rect width="24" height="24" fill="white" transform="translate(0 0.5)"/>
</clipPath>
</defs>
</svg>
