<svg width="24" height="25" viewBox="0 0 24 25" fill="none" xmlns="http://www.w3.org/2000/svg">
<path d="M17 11.5H13V7.5C13 7.23478 12.8946 6.98043 12.7071 6.79289C12.5196 6.60536 12.2652 6.5 12 6.5C11.7348 6.5 11.4804 6.60536 11.2929 6.79289C11.1054 6.98043 11 7.23478 11 7.5V11.5H7C6.73478 11.5 6.48043 11.6054 6.29289 11.7929C6.10536 11.9804 6 12.2348 6 12.5C6 12.7652 6.10536 13.0196 6.29289 13.2071C6.48043 13.3946 6.73478 13.5 7 13.5H11V17.5C11 17.7652 11.1054 18.0196 11.2929 18.2071C11.4804 18.3946 11.7348 18.5 12 18.5C12.2652 18.5 12.5196 18.3946 12.7071 18.2071C12.8946 18.0196 13 17.7652 13 17.5V13.5H17C17.2652 13.5 17.5196 13.3946 17.7071 13.2071C17.8946 13.0196 18 12.7652 18 12.5C18 12.2348 17.8946 11.9804 17.7071 11.7929C17.5196 11.6054 17.2652 11.5 17 11.5Z" fill="#374957"/>
</svg>
