<svg width="32" height="33" viewBox="0 0 32 33" fill="none" xmlns="http://www.w3.org/2000/svg">
<g clip-path="url(#clip0_360_2120)">
<path d="M30.284 5.936C29.909 5.48592 29.4394 5.12393 28.9087 4.87575C28.378 4.62757 27.7992 4.49929 27.2133 4.5H5.656L5.6 4.032C5.4854 3.05922 5.01785 2.16231 4.28599 1.5113C3.55413 0.860298 2.60884 0.500456 1.62933 0.5L1.33333 0.5C0.979711 0.5 0.640573 0.640476 0.390524 0.890524C0.140476 1.14057 0 1.47971 0 1.83333C0 2.18696 0.140476 2.52609 0.390524 2.77614C0.640573 3.02619 0.979711 3.16667 1.33333 3.16667H1.62933C1.95591 3.16671 2.27112 3.28661 2.51516 3.50362C2.75921 3.72063 2.91512 4.01967 2.95333 4.344L4.788 19.944C4.97847 21.5664 5.75797 23.0624 6.97854 24.148C8.19912 25.2337 9.77581 25.8334 11.4093 25.8333H25.3333C25.687 25.8333 26.0261 25.6929 26.2761 25.4428C26.5262 25.1928 26.6667 24.8536 26.6667 24.5C26.6667 24.1464 26.5262 23.8072 26.2761 23.5572C26.0261 23.3071 25.687 23.1667 25.3333 23.1667H11.4093C10.5841 23.1643 9.77973 22.9068 9.10658 22.4294C8.43343 21.952 7.92442 21.2781 7.64933 20.5H23.5427C25.1057 20.5001 26.6191 19.951 27.8184 18.9486C29.0177 17.9462 29.8267 16.5543 30.104 15.016L31.1507 9.21067C31.2551 8.63468 31.2317 8.04276 31.0819 7.47685C30.9321 6.91094 30.6597 6.3849 30.284 5.936ZM28.5333 8.73733L27.4853 14.5427C27.3188 15.4667 26.8326 16.3027 26.1118 16.9043C25.391 17.5059 24.4815 17.8348 23.5427 17.8333H7.22533L5.97067 7.16667H27.2133C27.4092 7.1655 27.6029 7.20749 27.7807 7.28967C27.9585 7.37185 28.116 7.4922 28.242 7.64214C28.368 7.79209 28.4595 7.96796 28.5098 8.15725C28.5602 8.34654 28.5682 8.54459 28.5333 8.73733Z" fill="#154A3B"/>
<path d="M9.33365 32.5008C10.8064 32.5008 12.0003 31.3069 12.0003 29.8342C12.0003 28.3614 10.8064 27.1675 9.33365 27.1675C7.8609 27.1675 6.66699 28.3614 6.66699 29.8342C6.66699 31.3069 7.8609 32.5008 9.33365 32.5008Z" fill="#154A3B"/>
<path d="M22.6667 32.5008C24.1394 32.5008 25.3333 31.3069 25.3333 29.8342C25.3333 28.3614 24.1394 27.1675 22.6667 27.1675C21.1939 27.1675 20 28.3614 20 29.8342C20 31.3069 21.1939 32.5008 22.6667 32.5008Z" fill="#154A3B"/>
</g>
<defs>
<clipPath id="clip0_360_2120">
<rect width="32" height="32" fill="white" transform="translate(0 0.5)"/>
</clipPath>
</defs>
</svg>
