<svg width="33" height="32" viewBox="0 0 33 32" fill="none" xmlns="http://www.w3.org/2000/svg">
<g clip-path="url(#clip0_489_2834)">
<path d="M26.2415 6.66585H23.4415C23.1321 5.16107 22.3133 3.80898 21.1232 2.83748C19.9331 1.86597 18.4445 1.33446 16.9082 1.33252H7.57487C5.80741 1.33464 4.11295 2.0377 2.86316 3.28748C1.61338 4.53726 0.91032 6.23173 0.908203 7.99919L0.908203 19.9992C0.911555 21.1934 1.31559 22.3519 2.05558 23.2891C2.79558 24.2264 3.82873 24.8882 4.98954 25.1685C4.86389 25.8358 4.88536 26.5224 5.05246 27.1805C5.21955 27.8387 5.52825 28.4524 5.957 28.9789C6.38575 29.5054 6.92423 29.932 7.53485 30.2289C8.14548 30.5258 8.81355 30.6859 9.49243 30.698C10.1713 30.7101 10.8447 30.5739 11.4655 30.299C12.0863 30.024 12.6396 29.6169 13.0869 29.106C13.5341 28.5951 13.8645 27.9928 14.0549 27.341C14.2454 26.6893 14.2913 26.0038 14.1895 25.3325H19.6322C19.5979 25.5531 19.5796 25.7759 19.5775 25.9992C19.5775 27.2369 20.0692 28.4239 20.9444 29.299C21.8195 30.1742 23.0065 30.6659 24.2442 30.6659C25.4819 30.6659 26.6689 30.1742 27.544 29.299C28.4192 28.4239 28.9109 27.2369 28.9109 25.9992C28.9094 25.7204 28.8821 25.4423 28.8295 25.1685C29.9899 24.8877 31.0224 24.2257 31.7619 23.2884C32.5013 22.3512 32.905 21.193 32.9082 19.9992V13.3325C32.9061 11.5651 32.203 9.8706 30.9532 8.62081C29.7035 7.37103 28.009 6.66797 26.2415 6.66585ZM30.2415 13.3325V14.6659H23.5749V9.33252H26.2415C27.3024 9.33252 28.3198 9.75395 29.07 10.5041C29.8201 11.2542 30.2415 12.2717 30.2415 13.3325ZM3.57487 19.9992V7.99919C3.57487 6.93832 3.9963 5.92091 4.74644 5.17076C5.49659 4.42061 6.514 3.99919 7.57487 3.99919H16.9082C17.9691 3.99919 18.9865 4.42061 19.7366 5.17076C20.4868 5.92091 20.9082 6.93832 20.9082 7.99919V22.6659H6.24154C5.53429 22.6659 4.85602 22.3849 4.35592 21.8848C3.85582 21.3847 3.57487 20.7064 3.57487 19.9992ZM11.5749 25.9992C11.5749 26.5296 11.3642 27.0383 10.9891 27.4134C10.614 27.7885 10.1053 27.9992 9.57487 27.9992C9.04444 27.9992 8.53573 27.7885 8.16066 27.4134C7.78558 27.0383 7.57487 26.5296 7.57487 25.9992C7.57569 25.7713 7.6177 25.5455 7.69887 25.3325H11.4509C11.532 25.5455 11.5741 25.7713 11.5749 25.9992ZM24.2415 27.9992C23.7111 27.9992 23.2024 27.7885 22.8273 27.4134C22.4523 27.0383 22.2415 26.5296 22.2415 25.9992C22.2421 25.7713 22.2841 25.5454 22.3655 25.3325H26.1175C26.1989 25.5454 26.241 25.7713 26.2415 25.9992C26.2415 26.5296 26.0308 27.0383 25.6558 27.4134C25.2807 27.7885 24.772 27.9992 24.2415 27.9992ZM27.5749 22.6659H23.5749V17.3325H30.2415V19.9992C30.2415 20.7064 29.9606 21.3847 29.4605 21.8848C28.9604 22.3849 28.2821 22.6659 27.5749 22.6659Z" fill="#EAECED"/>
</g>
<defs>
<clipPath id="clip0_489_2834">
<rect width="32" height="32" fill="white" transform="translate(0.908203)"/>
</clipPath>
</defs>
</svg>
