<svg width="75" height="67" viewBox="0 0 75 67" fill="none" xmlns="http://www.w3.org/2000/svg">
<path d="M68.3125 12.75H9.5625C8.78343 12.75 8.03626 12.4372 7.48537 11.8805C6.93449 11.3237 6.625 10.5686 6.625 9.78125C6.625 8.99389 6.93449 8.23878 7.48537 7.68203C8.03626 7.12528 8.78343 6.8125 9.5625 6.8125H59.5C60.2791 6.8125 61.0262 6.49972 61.5771 5.94297C62.128 5.38622 62.4375 4.63111 62.4375 3.84375C62.4375 3.05639 62.128 2.30128 61.5771 1.74453C61.0262 1.18778 60.2791 0.875 59.5 0.875H9.5625C7.22528 0.875 4.98379 1.81333 3.33112 3.48358C1.67846 5.15383 0.75 7.41917 0.75 9.78125V57.2812C0.75 59.6433 1.67846 61.9087 3.33112 63.5789C4.98379 65.2492 7.22528 66.1875 9.5625 66.1875H68.3125C69.8706 66.1875 71.365 65.5619 72.4668 64.4484C73.5685 63.3349 74.1875 61.8247 74.1875 60.25V18.6875C74.1875 17.1128 73.5685 15.6026 72.4668 14.4891C71.365 13.3756 69.8706 12.75 68.3125 12.75ZM55.0938 42.4375C54.2223 42.4375 53.3704 42.1763 52.6458 41.687C51.9212 41.1977 51.3564 40.5022 51.0229 39.6885C50.6894 38.8748 50.6021 37.9794 50.7722 37.1156C50.9422 36.2518 51.3618 35.4583 51.9781 34.8355C52.5943 34.2128 53.3794 33.7886 54.2341 33.6168C55.0889 33.445 55.9748 33.5332 56.7799 33.8702C57.5851 34.2073 58.2732 34.778 58.7574 35.5104C59.2416 36.2427 59.5 37.1036 59.5 37.9844C59.5 39.1654 59.0358 40.2981 58.2094 41.1332C57.3831 41.9683 56.2624 42.4375 55.0938 42.4375Z" fill="#154A3B"/>
</svg>
